<?xml version="1.0" encoding="utf-8"?>
<!-- Generator: Adobe Illustrator 27.2.0, SVG Export Plug-In . SVG Version: 6.00 Build 0)  -->
<svg version="1.1" id="_x33_21353356351_1" xmlns="http://www.w3.org/2000/svg" xmlns:xlink="http://www.w3.org/1999/xlink" x="0px"
	 y="0px" viewBox="0 0 193.14 218.36" style="enable-background:new 0 0 193.14 218.36;" xml:space="preserve"><g>
	<path class="st0" d="M53.56,59.22c0,0-0.1-0.42-0.39-1.17c0.15,0.01,0.25,0.05,0.33,0.1c0.1,0.08,0.15,0.19,0.17,0.32
		C53.72,58.81,53.56,59.22,53.56,59.22z"/>
	<path class="st0" d="M52.96,110.44v0.52c0.01-0.09,0.01-0.17,0.01-0.26C52.97,110.61,52.97,110.53,52.96,110.44z M62.76,171.83
		c-0.62,0-1.17,0.22-1.61,0.58c-0.58,0.47-0.94,1.18-0.94,1.97c0,1.4,1.14,2.55,2.55,2.55c0.77,0,1.47-0.35,1.92-0.9
		c0.39-0.44,0.62-1.02,0.62-1.65C65.3,172.98,64.16,171.83,62.76,171.83z"/>
	<path class="st0" d="M46.94,149.68c-0.25-0.69-0.5-1.39-0.77-2.07c-0.3-2.3-0.68-4.53-0.85-4.92c-0.17-0.4-0.63-0.04-1.1,0.34
		c-2.03-4.43-4.2-8.77-6.42-13.11c3.28,3.86,6.31,9.87,8.66,4.75v7.99C46.46,145.05,46.62,147.4,46.94,149.68z"/>
	<path class="st0" d="M138.84,58.22c-0.43,0.95-0.58,1.5-0.58,1.5S137.3,57.75,138.84,58.22z"/>
	<path class="st0" d="M136.63,150.27c-0.05,0.3-0.11,0.61-0.17,0.91c-0.01,0.07-0.03,0.15-0.05,0.22
		C136.49,151.03,136.56,150.65,136.63,150.27z"/>
	<path class="st0" d="M166.87,138.22c-1.84,11.25-18.13,33.68-32.42,47.77c2.7-3.05,5.19-6.17,7.5-8.91
		c8.95-10.58,17.14-23.54,23.55-35.7C166.04,140.36,166.47,139.3,166.87,138.22z"/>
	<path class="st0" d="M145.86,163.58c-0.92,0.61-2.71,0.71-3.5-0.06c-0.75,0.15-1.4,0.2-1.98,0.17c-0.16,0.39-0.34,0.77-0.53,1.15
		c0.38,0.16,0.86,0.93,1.26,1.22c0.48,0.67,1.3,1.26,1.43,2.01c0.02,0.1,0.03,0.2,0.04,0.3l3.32-4.82
		C145.89,163.56,145.87,163.57,145.86,163.58z M145.91,163.54c0.6-0.41,1.03-1.09,1.3-1.88L145.91,163.54z M178.06,94.22
		c1.51,2.65,3.45,5.09,5.48,7.4c0.52,0.6,1.14,1.1,1.8,1.57C182.44,100.41,180.27,97.43,178.06,94.22z M185.38,103.22
		c0.44,0.43,0.91,0.85,1.39,1.26c0.02-0.12,0.04-0.23,0.04-0.34C186.33,103.84,185.84,103.54,185.38,103.22z M155.39,33.54
		c-1.22,0.43-3.02-0.71-6.11-0.43c-2.27,0.23-2.86-0.55-7.91,0.27c0.63-1.76,8.3-8.22,10.14-6.97c2.35,1.66,1,4.75,0.91,4.96
		c0.26-0.15,4.41-2.65,6.45-7.58c2.12-5.05-1.17-7.28-4.42-7.28c-1.19,0-2.57-0.12-3.84-0.24c-0.5-0.04-0.97-0.09-1.41-0.12
		c-0.16-0.32-0.3-0.6-0.43-0.86c-0.44-0.86-0.8-1.44-1.82-2.07c-0.2-0.13-0.43-0.26-0.69-0.39c-2.62-1.34-8.65,0.43-11.39-0.24
		c-2.48-0.61-6.71,1.61-10.31,2.68c-0.01,0-0.01,0-0.01,0c-0.38,0.12-0.75,0.22-1.11,0.3c-1.4,0.32-2.87,1.29-4.39,2.29
		c-0.01,0.01-0.02,0.01-0.03,0.02c-2.45,1.62-4.92,3.3-7.43,2.34c0,0,0,0-0.01,0c-0.01,0.01-0.02,0.01-0.03,0
		c-0.01,0.01-0.02,0.01-0.03,0c-0.01,0.01-0.01,0.01-0.02,0c0,0,0,0.01-0.01,0c-0.16-0.05-0.31-0.11-0.46-0.19
		c-1.53-0.77-2.05-0.48-2,0.22c0.07,1.23,1.87,3.73,2.98,4.05c1.68,0.47,4.42-0.08,4.42-0.08s-0.19,0.38-0.53,1.02v0.01
		c-1.19,2.27-4.12,7.79-6.44,11.42c-1.02,1.62-2.99,4.64-5.13,7.9c-0.06,0.09-0.12,0.18-0.18,0.27c-0.26,0.4-0.53,0.8-0.79,1.21
		c-0.99,1.5-1.99,3.01-2.91,4.42c-0.04,0.05-0.08,0.1-0.11,0.16c1.61,0.06,3.52,0.21,5.55,0.5c0.4,0.07,0.81,0.13,1.23,0.21
		c0.94,0.16,1.89,0.36,2.85,0.6c1.08,0.27,2.11,0.6,3.09,0.97c0.18,0.07,0.35,0.14,0.53,0.2c0.02,0.02,0.04,0.03,0.07,0.03
		c1.08,0.44,2.1,0.91,3.02,1.39c0.08,0.04,0.16,0.08,0.24,0.12c1.89,1,3.38,1.99,4.31,2.66c0.08,0.07,0.15,0.12,0.22,0.17
		c0.58,0.43,0.89,0.69,0.89,0.69l-0.17,6.16c0.11,0.09,0.17,0.14,0.17,0.14l-0.27,3.8c0,0-0.49-0.27-1.32-0.7
		c-0.6-0.31-1.37-0.7-2.25-1.12c-1.31-0.63-2.87-1.33-4.46-1.96c-1.4-0.54-2.83-1.03-4.15-1.35c-0.61-0.16-1.28-0.28-1.98-0.39
		c-0.88-0.13-1.8-0.22-2.74-0.28c-4.16-0.29-8.47,0-9.33,0.07c-0.11,0.01-0.16,0.01-0.16,0.01v11.71h39.24l0.32-0.32l2.48-1.97
		c-2.2,0.05-4.49-1.63-6.22-3.43c-2.66-2.78-2.38-10.1-1.09-15.5c0.95-4,2.33-7.43,2.99-8.95v-0.01c0.23-0.53,0.37-0.83,0.37-0.83
		s0.04-0.01,0.12-0.04c0.92-0.27,6.85-2.02,8.65-1.84c1.3,0.12,4.39,1.49,4.39,1.49s-0.59-2.08-2.7-2.94
		c-2.12-0.82-8.34,0.78-8.34,0.78s1.76-2.82,4.03-4.89c3.09-0.55,7.68-0.31,11.9,0.43c4.23,0.78,7.05-1.49,10.42-4.86
		C158.17,33.46,156.6,33.07,155.39,33.54z M177.2,48.57c-4.16-5.16-9.04-7.05-13.79-7.1c5.96,0.97,11.85,4.39,14.82,8.96
		C177.9,49.82,177.56,49.21,177.2,48.57z M178.95,69.7c-1.71-1.5-2.75-3.54-3.9-5.5c-0.01-0.03-0.03-0.06-0.05-0.1
		c-0.51-1.06-1.23-2.09-2.05-3.07c0,0-0.01-0.01-0.01-0.02c-3.7-5.19-7.04-9.81-14.17-10.75c-0.16-0.02-0.32-0.04-0.48-0.05
		c0,0,0,0-0.01,0c-1.27-0.25-2.6-0.28-4.01-0.03c0,0-0.01-0.01-0.02,0c-0.84,0.04-1.68,0.08-2.51,0.08
		c-0.74,0.51-1.52,0.98-2.3,1.45c-0.85-0.29-2.3,1.74-3.2,1.74c-1.13,1.35-2.56,2.52-3.37,4.06c-0.26,0.49-0.29,1.05-0.29,1.61v0.01
		c0.01,0.01,0.01,0.01,0,0.02c0.01,0.01,0.01,0.01,0,0.02c0.01,0.01,0.01,0.01,0,0.02c0.01,0.01,0.01,0.01,0,0.02
		c-0.1,0.21-0.21,0.42-0.32,0.62l2.75,5.81l-0.61,6.09c-1.15,0.89-2.25,1.7-3.38,2.46c-0.08,0.02-0.16,0.04-0.24,0.07h4.08
		c0,5.27,0.06,10.55,0.13,15.85v0.01c0.08,5.89,0.18,11.78,0.26,17.68v0.01c0.1,8.4,0.14,16.78-0.02,25.14v0.01
		c-0.08,3.75-0.2,7.48-0.37,11.21c0.14-0.76,0.25-1.31,0.33-1.48c0.26-0.61,1.21,0.55,1.81,0.83c0.12,0.12,0.26,0.23,0.4,0.34
		c0.57,0.45,1.23,0.85,1.49,1.51c0.81,2.08,0.65,6.48-1.32,7.91c-0.93,0.68-2.7,0.8-3.49-0.03c-0.09,0.02-0.18,0.04-0.27,0.06
		c-0.08,0.01-0.16,0.03-0.24,0.04c-3.57,0.6-4.94-1.28-5.63-4.02c-0.39,2.73-1.04,5.39-1.95,7.96c0,0,0,0,0,0.01
		c1.06,2.1,1.95,3.72,4.07,4c0.4,0.06,0.84,0.07,1.34,0.02c0.49-1.21,0.93-2.45,1.3-3.7c0-0.01,0-0.01,0.01-0.02
		c0.39-1.26,0.72-2.53,1-3.82c0.4,0.07,1.05,0.72,1.51,0.91c0.63,0.57,1.58,0.96,1.91,1.71c0.56,1.28,0.68,3.53,0.09,5.25l6.22-9.01
		l3.5-6.67l0.01-0.01c0.15-0.09,0.3-0.18,0.45-0.26c0.05,0.11,0.1,0.22,0.15,0.33c0.76-0.6,1.47-1.2,2.15-1.83
		c0.03-0.02,0.06-0.04,0.09-0.07c0.01-0.01,0.03-0.02,0.04-0.03c2.99-2.13,4.65-4.21,7.2-7.33c-0.02,0.45-0.08,0.92-0.16,1.42
		c0.26-0.67,0.49-1.36,0.74-2.03c0.01-0.06,0.03-0.11,0.05-0.16c0.18-0.22,0.37-0.45,0.56-0.68l0.03-0.03
		c1.13-9.14,3.13-18.14,4.28-27.28c0.03-0.27,0.07-0.55,0.1-0.82c0.01-0.08,0.02-0.16,0.03-0.24c0.81-5.61,1.48-11.25,2.27-16.86
		c0-0.01,0-0.01,0-0.02c0.04-0.09,0.07-0.18,0.1-0.27c1.05,1.5,2.03,2.96,3,4.37c-0.45-0.79-0.86-1.59-1.22-2.41
		c-0.54-1.24-0.93-2.53-1.2-3.86c1.2-4.36,0.21-9.12-0.2-13.8c0.11-1.73,0.22-3.44,0.24-5.12v-0.01c0.29-1.09,0.24-2.18-0.04-3.25
		c0-0.01,0-0.01,0-0.02c0-0.12-0.01-0.23-0.02-0.35c2.06,3.91,2.56,4.28,6.42,6.67c1.77,1.1,3.24,1.94,4.9,2.73
		C184.12,73.23,181.29,71.76,178.95,69.7z M179.76,53.3c2.23,4.83,3.29,10.18,5.62,14.95c0.43,0.88,0.89,1.74,1.39,2.59
		C185.79,67.59,184.42,62.34,179.76,53.3z M186.92,74.76c0.36,0.19,0.72,0.39,1.08,0.59c0.01-0.04,0-0.07,0-0.11
		C187.62,75.08,187.27,74.92,186.92,74.76z M137.29,145.46c0.17,1.36,0.35,2.69,0.65,3.87c0.1-0.65,0.18-1.29,0.24-1.95
		C137.89,146.79,137.6,146.14,137.29,145.46z"/>
	<g>
		<path class="st0" d="M188,75.24c-0.38-0.16-0.73-0.32-1.08-0.48c-0.01-0.01-0.01-0.01-0.01-0.01c-2.79-1.52-5.62-2.99-7.96-5.05
			c-1.71-1.5-2.75-3.54-3.9-5.5c-0.01-0.03-0.03-0.06-0.05-0.1c-0.51-1.06-1.23-2.09-2.05-3.07c0,0-0.01-0.01-0.01-0.02
			c-3.7-5.19-7.04-9.81-14.17-10.75c-0.16-0.02-0.32-0.04-0.48-0.05c0,0,0,0-0.01,0c-1.27-0.25-2.6-0.28-4.01-0.03
			c0,0-0.01-0.01-0.02,0c-0.84,0.04-1.68,0.08-2.51,0.08c-0.74,0.51-1.52,0.98-2.3,1.45c-0.85-0.29-2.3,1.74-3.2,1.74
			c-1.13,1.35-2.56,2.52-3.37,4.06c-0.26,0.49-0.29,1.05-0.29,1.61v0.01c0,0.01,0,0.01,0,0.02c0,0.01,0,0.02,0,0.02
			c0,0.01,0,0.02,0,0.02c0,0.01,0,0.02,0,0.02c-0.1,0.21-0.21,0.42-0.32,0.62l2.75,5.81l-0.61,6.09c-1.15,0.89-2.25,1.7-3.38,2.46
			c-0.08,0.02-0.16,0.04-0.24,0.07h-5.86l0.32-0.32l2.48-1.97h0.01c1.2-0.01,2.36-0.55,3.41-1.84c2.94-3.68,2.46-9.11-0.9-11.22
			c-0.61-0.38-1.07-0.6-1.4-0.69c0.8-1.8,2.6-5.06,6.27-8.75c3.45-3.45,10.69-8.06,18.27-8h0.03c5.96,0.97,11.85,4.39,14.82,8.96
			c0,0.01,0,0.01,0,0.01c0.52,0.95,1.01,1.86,1.47,2.74c0.02,0.04,0.04,0.08,0.06,0.12c2.23,4.83,3.29,10.18,5.62,14.95
			c0.43,0.88,0.89,1.74,1.39,2.59v0.01c0.39,1.28,0.71,2.25,1.15,3.02C187.96,74.4,187.99,74.85,188,75.24z"/>
		<path class="st0" d="M140.78,74.26c0.08-0.03,0.16-0.05,0.24-0.07c-0.03,0.02-0.06,0.04-0.1,0.07H140.78z"/>
		<path class="st0" d="M149.44,51.71c-1.58,0.95-3.16,1.91-4.43,3.19c-1.18,1.19-1.7,2.73-2.43,4.22c0-0.56,0.03-1.12,0.29-1.61
			c0.81-1.54,2.24-2.71,3.37-4.06C147.14,53.45,148.59,51.42,149.44,51.71z"/>
		<path class="st0" d="M158.28,50.21c-1.33-0.14-2.67-0.09-4.01-0.03C155.68,49.93,157.01,49.96,158.28,50.21z"/>
		<path class="st0" d="M163.38,41.47c-7.58-0.06-14.82,4.55-18.27,8c-3.67,3.69-5.47,6.95-6.27,8.75c0.33,0.09,0.79,0.31,1.4,0.69
			c3.36,2.11,3.84,7.54,0.9,11.22c-1.05,1.29-2.21,1.83-3.41,1.84l3.71-2.94l-0.71-4.55l-3.67-4.65c4.29-8.14,7.97-14.23,17.43-17.7
			C157.21,41.13,160.3,40.97,163.38,41.47z"/>
		<path class="st0" d="M172.95,61.03c0.82,0.98,1.54,2.01,2.05,3.07c-0.39-0.66-0.79-1.32-1.24-1.94
			C173.48,61.78,173.22,61.4,172.95,61.03z"/>
		<path class="st0" d="M178.65,51.13c0.38,0.67,0.73,1.35,1.05,2.05c-0.46-0.88-0.95-1.79-1.47-2.74
			C178.38,50.67,178.52,50.9,178.65,51.13z"/>
		<path class="st0" d="M190.27,76.67c-0.31-0.19-0.61-0.38-0.93-0.55c-0.44-0.27-0.89-0.52-1.34-0.77c-0.36-0.2-0.72-0.4-1.08-0.59
			c0.35,0.16,0.7,0.32,1.08,0.48c-0.01-0.39-0.04-0.84-0.08-1.37c-0.44-0.77-0.76-1.74-1.15-3.02
			C187.89,72.81,189.13,74.71,190.27,76.67z"/>
		<path class="st0" d="M175.65,68.97v0.01c-0.09,0.33-0.21,0.68-0.37,1.01c0,0.01-0.01,0.01-0.01,0.02c0,0,0,0.01-0.01,0.01
			c-0.08,0.19-0.17,0.37-0.28,0.55c-1.69,2.89-3.6,3.5-5.48,2.94c-2.45-0.73-4.82-3.46-6.49-5.74L163,67.76
			c-0.59-0.8-1.09-1.54-1.48-2.12c-0.22-0.33-0.43-0.68-0.64-1.02c-0.01-0.01-0.02-0.02-0.02-0.04c-1.25-2.17-2.12-4.56-3.57-6.6
			c-0.11-0.16-0.22-0.31-0.35-0.47c-1.47-1.88-4.55-3.76-6.54-5.4c0,0,0-0.01-0.01-0.01c-0.16-0.14-0.31-0.26-0.45-0.39
			c1.51-0.81,2.94-1.3,4.31-1.53c0.01-0.01,0.02,0,0.02,0c1.41-0.25,2.74-0.22,4.01,0.03c0.01,0,0.01,0,0.01,0
			c5.31,0.99,9.52,5.57,13.02,9.04c0.57,0.56,1.12,1.15,1.63,1.76c0,0.01,0.01,0.02,0.01,0.02c0.82,0.98,1.54,2.01,2.05,3.07
			c0.02,0.04,0.04,0.07,0.05,0.1c0.23,0.5,0.42,0.99,0.56,1.5c0,0.01,0,0.01,0,0.02C175.89,66.79,175.94,67.88,175.65,68.97z"/>
		<polyline class="st0" points="154.8,50.84 162.45,55.19 167.64,61.57 169.48,66.22 		"/>
		<path class="st0" d="M162.14,67.96c-0.15,0.17-0.28,0.35-0.41,0.55v0.01c-0.13,0.19-0.26,0.39-0.39,0.6
			c-0.44,0.71-0.89,1.4-1.65,1.74c-0.33,0.15-0.67,0.28-1,0.39c-3.97,1.24-7.71-0.89-10.62-3.58c-2.25-2.08-3.67-4.84-5.5-7.26
			c0.04-0.39,0.02-0.8,0.01-1.2c0.01-0.01,0.01-0.01,0-0.02c0.01-0.01,0.01-0.01,0-0.02c0.01-0.01,0.01-0.01,0-0.02
			c0.01-0.01,0.01-0.01,0-0.02v-0.01c0-0.56,0.03-1.12,0.29-1.61c0.81-1.54,2.24-2.71,3.37-4.06c0.9,0,2.35-2.03,3.2-1.74
			c0.01,0,0.01,0,0.02,0c0.32,0.12,0.63,0.25,0.93,0.39c0.01,0,0.01,0.01,0.01,0.01c2.74,1.25,4.86,3.19,6.54,5.4
			c0.13,0.16,0.24,0.31,0.35,0.47c1.51,2.1,2.66,4.41,3.57,6.6c0,0.02,0.01,0.03,0.02,0.04c0.29,0.71,0.56,1.41,0.8,2.09
			C161.85,67.14,162,67.55,162.14,67.96z"/>
		<path class="st0" d="M189.34,76.12c-0.27,9.76-0.6,19.51-0.6,29.28c-0.61-0.45-1.27-0.85-1.93-1.26c-0.48-0.3-0.97-0.6-1.43-0.92
			c-0.01-0.01-0.03-0.03-0.04-0.03c-2.9-2.78-5.07-5.76-7.28-8.97c-0.01-0.01-0.01-0.02-0.02-0.03c0-0.01-0.01-0.01-0.01-0.02
			c-0.45-0.79-0.86-1.59-1.22-2.41c-0.54-1.24-0.93-2.53-1.2-3.86c1.2-4.36,0.21-9.12-0.2-13.8c0.11-1.73,0.22-3.44,0.24-5.12v-0.01
			c0.29-1.09,0.24-2.18-0.04-3.25c0-0.01,0-0.01,0-0.02c0-0.12-0.01-0.23-0.02-0.35c2.06,3.91,2.56,4.28,6.42,6.67
			c1.77,1.1,3.24,1.94,4.9,2.73c0,0,0,0,0.01,0.01c0.36,0.19,0.72,0.39,1.08,0.59C188.45,75.6,188.9,75.85,189.34,76.12z"/>
		<path class="st0" d="M175.61,65.72c0.28,1.07,0.33,2.16,0.04,3.25C175.69,67.86,175.67,66.77,175.61,65.72z"/>
		<path class="st0" d="M175.41,74.1c0.41,4.68,1.4,9.44,0.2,13.8C174.73,83.54,175.1,78.77,175.41,74.1z"/>
		<path class="st0" d="M185.34,103.19c-0.66-0.47-1.28-0.97-1.8-1.57c-2.03-2.31-3.97-4.75-5.48-7.4
			C180.27,97.43,182.44,100.41,185.34,103.19z"/>
		<path class="st0" d="M189.35,75.8c0,0.11-0.01,0.21-0.01,0.32c-0.44-0.27-0.89-0.52-1.34-0.77c-0.36-0.2-0.72-0.4-1.08-0.59
			c0.35,0.16,0.7,0.32,1.08,0.48C188.43,75.43,188.88,75.61,189.35,75.8z"/>
		<path class="st0" d="M175.61,87.9c-0.01,0.03-0.01,0.05-0.02,0.08c-0.18,0.64-0.37,1.25-0.56,1.82c-0.03,0.09-0.06,0.18-0.1,0.27
			c0,0.01,0,0.01,0,0.02c-0.21,0.6-0.43,1.16-0.65,1.67c-1.71,3.96-3.74,5.51-5.63,5.4c-0.07,0-0.14,0-0.21-0.01
			c-0.19-0.01-0.37-0.05-0.55-0.1c-2.31-0.65-4.32-3.7-5.15-7.65v-0.02c0,0,0-0.01-0.01-0.01c-0.38-1.86-0.51-3.92-0.29-6.03
			c0.31-2.92,0.01-6.5-0.3-9.97c-0.15-1.62-0.3-3.21-0.39-4.69c-0.01-0.06-0.01-0.11-0.02-0.16v-0.01
			c-0.03-0.63-0.06-1.24-0.07-1.82c0.01,0.01,0.01,0.01,0.02,0.02c0.46,0.35,0.89,0.7,1.32,1.05l0.01,0.01
			c2.51,2.08,4.58,4.12,6.46,4.99c2.05,0.95,3.88,0.52,5.79-2.74c0.01,0,0.01-0.01,0.01-0.01c0-0.01,0.01-0.01,0.01-0.02
			c-0.05,1.36,0.02,2.73,0.13,4.11C175.82,78.78,176.81,83.54,175.61,87.9z"/>
		<path class="st0" d="M162.14,86.53c-0.61,2.32-0.45,4.96-1.83,6.97c-4.39,6.34-10.21-1.83-12.23-5.8
			c-1.43-2.81-1.03-6.17-1.22-9.29c-0.21-3.48-0.89-7.07,0-10.45c0.22-0.84,1.63,0.77,2.45,1.16c2.04,0.97,3.84,2.73,6.12,2.9
			c2.85,0.22,5.1-1.92,6.73-3.77V86.53z"/>
		<path class="st0" d="M143.45,78.83c0,1.4-1.15,2.54-2.55,2.54c-1.41,0-2.55-1.14-2.55-2.54c0-1.41,1.14-2.55,2.55-2.55
			C142.3,76.28,143.45,77.42,143.45,78.83z"/>
		<path class="st0" d="M147.76,84.21c-0.06,0.51-0.19,1.03-0.39,1.58v0.01c-0.49,1.39-1.37,2.87-2.38,4.31
			c-0.07-5.3-0.13-10.58-0.13-15.85h-4.08c0.08-0.03,0.16-0.05,0.24-0.07c1.47-0.4,2.97-0.82,3.69-1.88
			c1.28-1.87,0.37-4.39,0.3-6.67c-0.01-0.19-0.01-0.39,0-0.58l2.28,2.7l0.17,0.2C147.56,73.38,148.37,78.82,147.76,84.21z"/>
		<path class="st0" d="M187.52,105.11c-0.52,6.88-0.46,13.97-2.76,20.6c-1.31,3.79-3.44,7.29-4.89,11.03
			c-1.1,2.84-1.72,5.84-2.75,8.71c-1.6,4.45-2.45,5.74-2.45,10.44c-0.37-0.36-0.79-0.69-1.21-1.02l-0.01-0.01h-0.01
			c-0.37-0.29-0.75-0.57-1.12-0.87c-0.9-0.7-1.73-1.46-2.23-2.45c-0.45-0.89-0.83-1.81-1.16-2.75c-1.34-3.94-1.61-8.24-1.32-12.63
			c0.01-0.06,0.03-0.11,0.05-0.16c0.18-0.22,0.37-0.45,0.56-0.68l0.03-0.03c1.13-9.14,3.13-18.14,4.28-27.28
			c0.03-0.27,0.07-0.55,0.1-0.82c0.01-0.08,0.02-0.16,0.03-0.24c0.81-5.61,1.48-11.25,2.27-16.86c0-0.01,0-0.01,0-0.02
			c0.04-0.09,0.07-0.18,0.1-0.27c1.05,1.5,2.03,2.96,3,4.37c0,0.01,0.01,0.01,0.01,0.02c0.01,0.01,0.01,0.02,0.02,0.03
			c1.51,2.65,3.45,5.09,5.48,7.4c0.52,0.6,1.14,1.1,1.8,1.57c0.01,0,0.03,0.02,0.04,0.03c0.44,0.43,0.91,0.85,1.39,1.26
			C187.01,104.69,187.26,104.9,187.52,105.11z"/>
		<path class="st0" d="M172.63,107.19c-0.03,0.27-0.07,0.55-0.1,0.82c-1.15,9.14-3.15,18.14-4.28,27.28l-0.03,0.03
			c-0.19,0.23-0.38,0.46-0.56,0.68c-0.02,0.05-0.04,0.1-0.05,0.16v-0.11c0.54-7.74,2.82-15.75,4.01-22.53
			C171.99,111.42,172.32,109.31,172.63,107.19z"/>
		<path class="st0" d="M175.03,89.8c-0.03,0.09-0.06,0.18-0.1,0.27c0.02-0.11,0.03-0.23,0.05-0.34
			C175,89.75,175.01,89.78,175.03,89.8z"/>
		<path class="st0" d="M185.34,103.19c-0.66-0.47-1.28-0.97-1.8-1.57c-2.03-2.31-3.97-4.75-5.48-7.4
			C180.27,97.43,182.44,100.41,185.34,103.19z"/>
		<path class="st0" d="M174.37,90.89c-0.03,0.29-0.06,0.58-0.09,0.87c-0.53,5.06-1.01,10.13-1.62,15.19
			c-0.01,0.08-0.02,0.16-0.03,0.24c-0.03,0.27-0.07,0.55-0.1,0.82c-1.15,9.14-3.15,18.14-4.28,27.28l-0.03,0.03
			c-0.19,0.23-0.38,0.46-0.56,0.68c-0.02,0.02-0.03,0.03-0.05,0.05v0.01c-0.2,0.24-0.39,0.48-0.58,0.71
			c-2.55,3.12-4.21,5.2-7.2,7.33c-0.01,0.01-0.03,0.02-0.04,0.03c-0.03,0.03-0.06,0.05-0.09,0.07c-0.68,0.49-1.44,0.98-2.3,1.5
			c-0.15,0.08-0.3,0.17-0.45,0.26l-0.01,0.01c-0.1-0.75-0.21-1.49-0.33-2.25c0-0.01,0-0.01-0.01-0.02c-0.75-4.8-1.85-9.71-1.8-14.5
			c0-0.13,0-0.25,0.01-0.38c0.12-4.1,1.62-8.07,2.43-12.1c1.92-9.47,3.57-18.35,4.48-27.93v-0.01c0.01-0.06,0.02-0.11,0.02-0.17
			v-0.03c0.03-0.3,0.06-0.59,0.09-0.89c0.02,0.03,0.03,0.05,0.05,0.08v0.01c0.3,0.55,0.59,1.07,0.85,1.59
			c0.01,0,0.01,0.01,0.01,0.01v0.02c2.14,4.01,3.56,6.89,5.15,7.59c0.18,0.09,0.36,0.14,0.55,0.16c0.07,0.01,0.14,0.01,0.21,0.01
			C170.12,97.16,171.83,95.31,174.37,90.89z"/>
		<path class="st0" d="M161.83,88.56c-1.6,13.89-3.53,26.72-7.02,40.26c-0.09,0.39-0.19,0.77-0.3,1.16v0.01
			c-0.01,0.03-0.01,0.05-0.02,0.08c-0.12,0.13-0.25,0.27-0.37,0.41v0.01c-3.69,4.23-6.46,10.71-8.89,2.47v-0.01
			c0.16-8.36,0.12-16.74,0.02-25.14v-0.01c1.09-6.86,2.45-13.76,2.77-20.22c0.02-0.45,0.04-0.9,0.05-1.34
			c6.23,7.61,8.46,13.25,13.64,2.56c0.01,0,0.01-0.01,0.01-0.01v-0.01C161.76,88.71,161.79,88.63,161.83,88.56z"/>
		<path class="st0" d="M166.87,138.22c-1.84,11.25-18.13,33.68-32.42,47.77c2.7-3.05,5.19-6.17,7.5-8.91
			c8.95-10.58,17.14-23.54,23.55-35.7C166.04,140.36,166.47,139.3,166.87,138.22z"/>
		<path class="st0" d="M168.25,134.42c-0.01,0.31-0.02,0.61-0.03,0.9c-0.19,0.23-0.38,0.46-0.56,0.68
			C167.85,135.47,168.04,134.94,168.25,134.42z"/>
		<path class="st0" d="M167.03,136.77c-0.02,0.45-0.08,0.92-0.16,1.42v0.03c-0.4,1.08-0.83,2.14-1.37,3.16
			c-6.41,12.16-14.6,25.12-23.55,35.7c-2.31,2.74-4.8,5.86-7.5,8.91c-0.01,0.01-0.01,0.01-0.02,0.02
			c-6.14,6.05-11.92,10.56-16.02,11.97c0.01-0.56-0.01-1.13-0.07-1.71c-0.25-3.21-1.2-6.6,0.11-9.4c0.17-0.09,0.33-0.18,0.5-0.27
			c6.37-3.43,11.83-8.2,16.05-13.86c0.39,0.09,0.83,0.16,1.31,0.22c0.58,0.88,2.31,1.28,3.34,1.01c2.07-0.55,3.13-3.69,2.93-5.6
			l3.32-4.82c0.01,0,0.01,0,0.01-0.01c0.6-0.41,1.03-1.09,1.3-1.88c0.01,0,0.01-0.01,0.01-0.01l6.22-9.01l3.5-6.67l0.01-0.01
			c0.15-0.09,0.3-0.18,0.45-0.26c0.05,0.11,0.1,0.22,0.15,0.33c0.76-0.6,1.47-1.2,2.15-1.83c0.03-0.02,0.06-0.04,0.09-0.07
			c0.01-0.01,0.03-0.02,0.04-0.03C162.82,141.97,164.48,139.89,167.03,136.77z"/>
		<path class="st0" d="M145.9,163.55l-3.32,4.82c-0.01-0.1-0.02-0.2-0.04-0.3c-0.13-0.75-0.95-1.34-1.43-2.01
			c-0.4-0.29-0.88-1.06-1.26-1.22c0.19-0.38,0.37-0.76,0.53-1.15c0.58,0.03,1.23-0.02,1.98-0.17c0.79,0.77,2.58,0.67,3.5,0.06
			C145.87,163.57,145.89,163.56,145.9,163.55z"/>
		<path class="st0" d="M147.21,161.66c-0.27,0.79-0.7,1.47-1.3,1.88L147.21,161.66z"/>
		<path class="st0" d="M157.4,145.7c-0.15,0.08-0.3,0.17-0.45,0.26l-0.01,0.01l-3.5,6.67l-6.22,9.01c0.59-1.72,0.47-3.97-0.09-5.25
			c-0.33-0.75-1.28-1.14-1.91-1.71c-0.46-0.19-1.11-0.84-1.51-0.91c-0.28,1.29-0.61,2.56-1,3.82c-0.01,0.01-0.01,0.01-0.01,0.02
			c-0.37,1.25-0.81,2.49-1.3,3.7c-0.5,0.05-0.94,0.04-1.34-0.02c1.44-2.51,2.5-5.22,3.51-7.95c0.08-0.01,0.16-0.03,0.24-0.04
			c0.09-0.02,0.18-0.04,0.27-0.06c0.79,0.83,2.56,0.71,3.49,0.03c1.97-1.43,2.13-5.83,1.32-7.91c-0.26-0.66-0.92-1.06-1.49-1.51
			c2.12-4.52,4.39-8.94,6.72-13.37v-0.01c0.12-0.23,0.25-0.47,0.37-0.7c0.01,0.07,0.02,0.13,0.02,0.2v0.01
			c0.56,4.82,0.56,9.28,2.09,13.71c0.01,0.01,0.01,0.01,0.01,0.02c0.18,0.55,0.4,1.11,0.65,1.66
			C157.3,145.49,157.35,145.59,157.4,145.7z"/>
		<path class="st0" d="M173.72,155.37c-4.99,7.74-10.73,16.57-16.17,24.03c-10.51,14.43-26.9,23.89-41.89,33.67
			c-0.37-4.57-0.46-7.35,0.23-11.34v-0.01c0.13-1.93,0.77-3.56,2.45-5.45c0.06,0.58,0.08,1.15,0.07,1.71
			c4.1-1.41,9.88-5.92,16.02-11.97c0.01-0.01,0.01-0.01,0.02-0.02c14.29-14.09,30.58-36.52,32.42-47.77v-0.03
			c0.26-0.67,0.49-1.36,0.74-2.03c-0.29,4.39-0.02,8.69,1.32,12.63c0.33,0.94,0.71,1.86,1.16,2.75c0.5,0.99,1.33,1.75,2.23,2.45
			c0.37,0.3,0.75,0.58,1.12,0.87h0.01l0.01,0.01C173.53,155.04,173.62,155.2,173.72,155.37z"/>
		<path class="st0" d="M166.87,138.22c-1.84,11.25-18.13,33.68-32.42,47.77c2.7-3.05,5.19-6.17,7.5-8.91
			c8.95-10.58,17.14-23.54,23.55-35.7C166.04,140.36,166.47,139.3,166.87,138.22z"/>
		<path class="st0" d="M167.03,136.74v0.03c-2.55,3.12-4.21,5.2-7.2,7.33C162.41,141.82,164.57,139.44,167.03,136.74z"/>
		<path class="st0" d="M169.43,147.83c-12.71,25.64-29.57,41.21-48.26,57.4"/>
		<polyline class="st0" points="157.41,145.09 157.26,145.38 156.95,145.96 		"/>
		<path class="st0" d="M181.33,100.25c-0.87,19.24-4.98,30.36-7.57,44.32"/>
		<path class="st0" d="M167.91,96.54c-0.44,14.38-1.84,26.67-6.69,40.49"/>
		<polyline class="st0" points="154.5,94.66 153.89,106.27 152.36,118.75 150.83,127.45 		"/>
		<line class="st0" x1="156.33" y1="72.31" x2="156.03" y2="88.87"/>
		<polyline class="st0" points="169.48,72.74 169.82,82.39 168.56,88.56 		"/>
		<path class="st0" d="M182.92,74.63c-1.54,5.46-0.7,11.72,1.22,18.28"/>
		<polyline class="st0" points="146.85,55.48 153.89,61.57 156.64,67.38 		"/>
	</g>
	<g>
		<path class="st0" d="M105.23,74.26H85.61l0.06-11.76c4.53-0.36,9.41,0.01,9.96,0.05c0.03,0,0.05,0,0.05,0s0.05,0,0.16-0.01
			c0.86-0.07,5.17-0.36,9.33-0.07L105.23,74.26z"/>
		<path class="st0" d="M105.54,191.53c-1.51,18.4-10.11,25.83-10.11,25.83c-0.03,0-8.67-7.46-10.14-25.94
			c3.36,0.75,6.82,1.15,10.34,1.15C98.9,192.57,102.22,192.23,105.54,191.53z"/>
		<line class="st0" x1="95.63" y1="215.23" x2="95.63" y2="192.57"/>
		<polyline class="st0" points="95.63,61.94 95.63,62.55 95.63,74.26 		"/>
	</g>
	<g>
		<path class="st0" d="M103.36,46.05l-16.37-4.8v5.56c0,1.54,1.56,2.88,3.92,3.66v0.01c0.15,0.05,0.3,0.1,0.45,0.13h0.01
			c1.27,0.38,2.74,0.59,4.31,0.59h0.16c1.51-0.01,2.92-0.22,4.14-0.59h0.01c0.16-0.04,0.31-0.09,0.46-0.14
			c0.49-0.16,0.93-0.34,1.34-0.55c1.57-0.8,2.54-1.9,2.54-3.11v-0.47L103.36,46.05z M86.99,33.19v6.61l17.16,5.04l0.18,0.05v-6.61
			L86.99,33.19z M86.99,25v6.74l17.34,5.09v-6.74L86.99,25z M98.71,18.78c-0.94-0.18-1.96-0.28-3.03-0.28s-2.09,0.1-3.03,0.28
			c-3.3,0.62-5.66,2.22-5.66,4.11v0.66l17.34,5.09v-5.75C104.33,21,101.99,19.4,98.71,18.78z"/>
		<path class="st0" d="M88.24,13.65h14.84c0.94,0,1.68,0.74,1.68,1.68v1.76c0,0.94-0.74,1.68-1.68,1.68H88.24
			c-0.94,0-1.68-0.74-1.68-1.68v-1.76C86.56,14.39,87.3,13.65,88.24,13.65z"/>
		<path class="st0" d="M95.68,13.53c4.97,0,9.04-2.82,9.04-6.26S100.66,1,95.68,1c-5.01,0-9.08,2.82-9.08,6.26
			S90.67,13.53,95.68,13.53z"/>
	</g>
	<path class="st1" d="M52.96,110.44v0.52c0.01-0.09,0.01-0.17,0.01-0.26C52.97,110.61,52.97,110.53,52.96,110.44z M53.08,145.76
		c0,0.15,0.02,0.31,0.03,0.46c0.03-0.25,0.07-0.51,0.1-0.76C53.16,145.56,53.12,145.66,53.08,145.76z M59.11,164.86
		c-0.01,0.05-0.03,0.1-0.04,0.15c0.02,0.04,0.04,0.07,0.06,0.1C59.13,165.03,59.12,164.94,59.11,164.86z M137.29,145.46
		c0.17,1.36,0.35,2.69,0.65,3.87c0.1-0.65,0.18-1.29,0.24-1.95C137.89,146.79,137.6,146.14,137.29,145.46z M136.41,151.4
		c0.02-0.07,0.04-0.15,0.05-0.22c0.06-0.3,0.12-0.61,0.17-0.91C136.56,150.65,136.49,151.03,136.41,151.4z"/>
	<g>
		<path class="st0" d="M56.59,74.26h-5.71c-0.13-0.09-0.27-0.18-0.4-0.28h-0.01c-1.09-0.76-2.15-1.55-3.26-2.44l-0.6-6.05l2.67-5.77
			c-0.11-0.2-0.22-0.41-0.32-0.63c-0.7-1.48-1.21-3.1-2.35-4.28c-1.22-1.27-2.75-2.21-4.27-3.16h-0.01
			c-0.76-0.47-1.5-0.94-2.22-1.45c-0.77,0-1.55-0.03-2.32-0.06c-0.01-0.01-0.01-0.01-0.02,0c-1.33-0.07-2.67-0.12-4,0.01
			c-0.16,0.01-0.31,0.03-0.47,0.05c-6.94,0.94-10.17,5.59-13.78,10.78c-0.02,0.02-0.03,0.04-0.04,0.06
			c-0.22,0.32-0.45,0.65-0.68,0.98c-0.43,0.62-0.82,1.27-1.19,1.93c-0.03,0.03-0.04,0.07-0.06,0.11c-1.11,1.95-2.12,3.97-3.78,5.46
			c-2.2,1.99-4.84,3.44-7.47,4.9c-0.01,0.01-0.02,0.02-0.03,0.02c-0.86,0.48-1.71,0.96-2.54,1.46c-0.14,0.08-0.28,0.17-0.42,0.26
			c-0.16,0.09-0.32,0.19-0.48,0.29c0.15-0.27,0.31-0.54,0.47-0.81c0-0.01,0-0.01,0-0.01c1.46-2.5,3.03-4.94,4.26-7.55
			c0.48-1,0.9-2.03,1.28-3.07c0.01-0.02,0.02-0.05,0.03-0.08c1.72-4.62,2.8-9.54,5.2-13.86c4.03-7.28,15.37-11.96,23.37-8.95
			C46,45.34,49.67,50.84,53.5,58.15c0.05,0.1,0.1,0.21,0.17,0.32v0.01c0.21,0.4,0.42,0.82,0.64,1.24l-3.55,4.61l-0.6,3.96
			l-0.09,0.57l6,4.87L56.59,74.26z"/>
		<path class="st0" d="M41.85,51.64c-1.87,1.73-5.24,3.74-6.77,5.77c-1.86,2.46-2.75,5.5-4.44,8.08c-2.27,3.47-8.5,12.85-13.02,4.9
			c-2.25-3.95,0.38-8.03,3.55-11.25C26.18,54.05,32.65,46.56,41.85,51.64z"/>
		<polyline class="st0" points="37.15,50.78 29.76,55.1 24.73,61.45 22.95,66.06 		"/>
		<path class="st0" d="M48.99,60.29c-1.78,2.4-3.15,5.14-5.33,7.21c-3.05,2.9-7.05,5.14-11.24,3.17c-1.14-0.53-1.58-1.92-2.37-2.88
			c1.91-5.55,5.03-13.33,12.26-16.15c0.82-0.32,2.24,1.73,3.12,1.73c1.09,1.35,2.47,2.51,3.25,4.04
			C49.13,58.27,48.89,59.33,48.99,60.29z"/>
		<path class="st0" d="M3.72,75.58c0.26,9.82,0.59,19.6,0.59,29.42c1.68-1.25,3.68-2.17,5.03-3.75c2.55-3,4.98-6.21,6.51-9.81
			c3.34-7.84,0.61-17.84,1.18-26.25c-2,3.89-2.48,4.25-6.21,6.63C8.33,73.42,6.47,74.46,3.72,75.58z"/>
		<path class="st0" d="M30.51,66.53c-0.1,4.9-1.26,11.67-0.76,16.55c1.19,11.59-8.02,21.78-12.72,4.61
			c-1.54-5.64,0.52-11.93,0.3-17.88C21.19,76.58,24.66,71.18,30.51,66.53z"/>
		<path class="st0" d="M30.05,86.25c0.59,2.31,0.44,4.93,1.78,6.92c4.24,6.3,9.88-1.82,11.83-5.77c1.38-2.79,1-6.13,1.18-9.23
			c0.21-3.45,0.86-7.03,0-10.38c-0.21-0.83-1.58,0.77-2.37,1.15c-1.97,0.96-3.72,2.71-5.92,2.88c-2.76,0.22-4.93-1.91-6.51-3.75
			V86.25z"/>
		<path class="st0" d="M51.47,74.26h-5.01v15.3c-0.9-1.35-1.69-2.74-2.13-4.04c-0.19-0.54-0.32-1.07-0.38-1.58
			c-0.58-5.35,0.2-10.76,0.3-16.15l0.17-0.2l0.01-0.01l2.18-2.67c0.01,0.19,0.01,0.39,0,0.58c-0.07,2.26-0.93,4.77,0.3,6.63
			c0.69,1.05,2.13,1.46,3.56,1.86h0.01C50.82,74.07,51.15,74.16,51.47,74.26z"/>
		<path class="st0" d="M23.47,148.11c-0.31,0.94-0.68,1.85-1.12,2.74c-0.68,1.38-2,2.32-3.24,3.31c-0.01,0-0.01,0.01-0.02,0.01
			c-0.41,0.33-0.81,0.66-1.17,1.01c0-1.68-0.11-2.92-0.32-4.03c0-0.01,0-0.01-0.01-0.02c-0.36-1.96-1.06-3.51-2.04-6.33
			c-0.99-2.85-1.6-5.83-2.66-8.65c-0.67-1.78-1.5-3.5-2.31-5.23c0,0,0,0,0-0.01c-0.89-1.88-1.77-3.76-2.43-5.72
			c-2.12-6.32-2.16-13.08-2.6-19.65c-0.02-0.28-0.04-0.55-0.06-0.83c0.75-0.63,1.45-1.26,2.11-1.91c2.84-2.79,4.94-5.78,7.08-8.99
			c0.94-1.39,1.88-2.83,2.89-4.31c0.01-0.03,0.03-0.05,0.05-0.08c0.02,0.13,0.04,0.26,0.05,0.39c0.76,5.53,1.4,11.1,2.19,16.64
			c0.31,2.22,0.64,4.42,1.02,6.62c1.15,6.73,3.35,14.69,3.87,22.39c0,0.03,0.01,0.07,0,0.11C25.04,139.93,24.78,144.2,23.47,148.11z
			"/>
		<path class="st0" d="M24.13,134.7c3.98,4.92,5.53,7.39,10.95,10.61c0.69-5.48,2.13-11.15,2.07-16.67
			c-0.04-4.2-1.55-8.27-2.37-12.4c-1.92-9.76-3.56-18.9-4.44-28.84c-4.92,9.32-6.09,13.98-12.13,3.17
			c0.59,5.67,1.08,11.36,1.78,17.02C21.11,116.67,23.04,125.62,24.13,134.7z"/>
		<path class="st0" d="M46.46,108.33v26.34c-2.35,5.12-5.38-0.89-8.66-4.75c-0.12-0.14-0.24-0.28-0.36-0.41
			c-0.01-0.03-0.01-0.05-0.02-0.08c-0.1-0.34-0.19-0.63-0.27-0.97c-0.01-0.01-0.01-0.01-0.01-0.02s0-0.01,0-0.02s0-0.01,0-0.02
			v-0.08c-3.37-13.46-5.25-26.24-6.8-40.05c0.03,0.07,0.07,0.13,0.1,0.2c0.01,0,0.01,0.01,0.01,0.01v0.01c0,0.01,0,0.01,0,0.02
			l0.01,0.01c5.01,10.61,7.17,5,13.2-2.56c0.01,0.44,0.03,0.87,0.05,1.32v0.01C44.02,93.92,45.35,101.18,46.46,108.33z"/>
		<path class="st0" d="M95.68,62.55v11.71H67.36c-0.15,0.2-0.31,0.41-0.47,0.62c-0.14-0.21-0.28-0.41-0.42-0.62H46.46v15.3
			c-0.9-1.35-1.69-2.74-2.13-4.04c-0.01,0.03-0.01,0.05-0.02,0.07c-0.02,0.08-0.04,0.16-0.06,0.23c-0.02,0.09-0.05,0.18-0.08,0.26
			c-0.02,0.09-0.05,0.18-0.08,0.26c-0.03,0.1-0.07,0.21-0.11,0.31c-0.08,0.21-0.17,0.42-0.27,0.63v0.01
			c0.31,6.63,1.64,13.89,2.75,21.04v26.34c-2.35,5.12-5.38-0.89-8.66-4.75c2.22,4.34,4.39,8.68,6.42,13.11
			c0.47-0.38,0.93-0.74,1.1-0.34c0.17,0.39,0.55,2.62,0.85,4.92c0.27,0.68,0.52,1.38,0.77,2.07c0.14,0.38,0.28,0.76,0.41,1.14
			c3.44,0.4,4.32-1.97,5.73-5.06c0.04-0.1,0.08-0.2,0.13-0.3c-0.03,0.25-0.07,0.51-0.1,0.76v0.01c-0.5,3.79-1.19,7.16-4.81,7.23
			c-0.22,0.01-0.45,0-0.7-0.03c0.59,2.74,1.4,5.38,2.41,7.91c0.64-0.03,1.17-0.16,1.63-0.39c1.55-0.75,2.28-2.5,3.33-4.56
			c-0.38,2.56-0.76,5.01-2.22,6.32c-0.47,0.42-1.05,0.73-1.77,0.88c1.14,2.49,2.47,4.87,3.98,7.1c1.41-0.34,2.25-0.97,2.8-1.83
			c0.66-1.01,0.93-2.33,1.31-3.85c0.01-0.05,0.03-0.1,0.04-0.15c0.01,0.08,0.02,0.17,0.02,0.25l0.01,0.01
			c0.17,1.83,0.31,3.59-0.22,4.98c-0.41,1.06-1.2,1.91-2.65,2.42c4.31,5.8,9.82,10.58,16.08,14.01c0.14,2.91-0.6,5.38-1.81,7.42
			c0.71,0.6,1.32,1.16,1.85,1.7c3.2,3.26,3.32,5.64,2.88,9.68c0,0.01,0,0.01,0,0.02c0.07,2.01-0.05,4.04-0.25,6.65
			c-0.51-0.34-1.02-0.68-1.53-1.02c-0.78,0.41-1.67-0.3-2.36-1.56v-0.01c-13.38-8.84-27.37-17.8-36.65-30.87
			c-5.26-7.42-10.81-16.19-15.64-23.88c0.09-0.16,0.17-0.32,0.26-0.48l-0.01-0.01c-0.41-0.8-0.91-1.81-1.49-3.02
			c0-0.01,0-0.01-0.01-0.02c-1.05-2.25-2.34-5.19-3.7-8.74c-1.39-3.68-2.47-7.66-3.31-11.47c0,0,0,0,0-0.01
			c-1.18-5.4-1.86-10.47-2.25-13.94c-0.67-5.95-1.22-13.11-1.22-13.11l-1.56,1.68L5,106.13c-0.18-0.46-0.31-0.91-0.39-1.34v-0.01
			c-0.5-2.45,0.36-4.25,0.43-4.45c0.35-1.99,1.25-4.19,0-9.28c-1.3-5.09,1.6-15.58,0.35-14.68c-0.61,0.45-1.22,1.1-1.62,0.99
			c-0.24-0.06-0.41-0.39-0.46-1.2c0-0.16-0.01-0.33-0.01-0.52c0-0.01,0-0.01,0-0.01c0-0.47,0.03-1.05,0.09-1.76
			c2.24-2.05,3.63-4.51,5.45-8.86c0.01-0.02,0.02-0.05,0.03-0.08c1.48-3.52,3.26-8.28,5.99-15.03c10.81-13.43,26.53-8.19,31.84-1.41
			c3.98,4.01,5.77,7.74,6.47,9.56c-0.37-0.02-1.02,0.2-2.09,0.86c-1.43,5.42-2.96,6.98-0.92,9.38c0.05,0.07,0.12,0.14,0.18,0.21
			c2.97,3.68,6.81,2.82,9.47,0.04c2.67-2.78,2.39-10.1,1.1-15.5c-1.29-5.41-3.37-9.79-3.37-9.79s-6.81-2.08-8.77-1.88
			c-1.29,0.12-4.38,1.49-4.38,1.49s0.58-2.08,2.7-2.94c2.11-0.82,8.34,0.78,8.34,0.78s-1.76-2.82-4.04-4.89
			c-3.09-0.55-7.67-0.31-11.9,0.43c-4.23,0.78-7.05-1.49-10.41-4.86c4.07,2.08,5.64,1.69,6.85,2.16c1.21,0.43,3.05-0.71,6.11-0.43
			c2.27,0.23,2.86-0.55,7.91,0.27c-0.63-1.76-8.3-8.22-10.14-6.97c-2.35,1.66-1.01,4.75-0.92,4.96c-0.26-0.15-4.4-2.65-6.45-7.58
			c-2.11-5.05,1.18-7.28,4.43-7.28c1.13,0,2.45-0.11,3.68-0.22c0.55-0.05,1.08-0.1,1.57-0.14c0.25-0.49,0.44-0.89,0.63-1.25h0.01
			c0.39-0.72,0.82-1.24,1.86-1.84c0.13-0.07,0.28-0.15,0.43-0.23c2.63-1.34,8.65,0.43,11.4-0.24c2.74-0.67,7.63,2.11,11.43,2.98
			c3.8,0.86,8.18,6.61,12.41,4.46c0.16-0.08,0.3-0.15,0.44-0.2c0.07,0,0.14,0,0.21-0.01c0.68-0.37,1.14-0.3,1.29,0.02
			c0.48,0.94-1.68,4.09-2.92,4.46c-1.68,0.47-4.42-0.08-4.42-0.08s0.1,0.2,0.28,0.55c0.96,1.85,4.18,7.98,6.69,11.9
			c1.02,1.62,2.99,4.63,5.13,7.89c1.3,1.97,2.66,4.02,3.92,5.91v0.01c0.03,0.05,0.06,0.09,0.1,0.14c-1.57,0.07-3.42,0.21-5.4,0.49
			c-0.31,0.04-0.62,0.09-0.93,0.14c-1.09,0.18-2.21,0.41-3.33,0.69c-0.95,0.24-1.87,0.53-2.75,0.85c-0.25,0.09-0.5,0.18-0.74,0.27
			c-0.02,0.02-0.05,0.02-0.07,0.03c-0.98,0.39-1.91,0.81-2.76,1.24c-0.09,0.04-0.18,0.09-0.27,0.13c-1.92,0.98-3.45,1.99-4.46,2.7
			c0.53,2.57,0.9,5.02,0.76,7.47v0.01c0.66,0.48,1.32,0.97,1.98,1.46c0.06,0.05,0.11,0.11,0.17,0.16c1.31-0.61,2.82-1.28,4.36-1.88
			c1.31-0.5,2.63-0.94,3.86-1.24c0.64-0.16,1.34-0.3,2.08-0.4c0.69-0.1,1.42-0.18,2.16-0.24c4.53-0.36,9.41,0.01,9.96,0.05
			C95.66,62.55,95.68,62.55,95.68,62.55z"/>
		<path class="st0" d="M24.75,135.57c0.29,4.36,0.03,8.63-1.28,12.54c-0.31,0.94-0.68,1.85-1.12,2.74c-0.68,1.38-2,2.32-3.24,3.31
			c4.14-7.73,5.24-10.54,5.04-19.43c0-0.29-0.01-0.58-0.02-0.89c0.2,0.51,0.38,1.03,0.56,1.55
			C24.71,135.45,24.73,135.51,24.75,135.57z"/>
		<path class="st0" d="M49.57,176.23c2.26,2.75,4.71,5.89,7.36,8.96c-13.85-13.99-29.68-36.36-31.46-47.56
			c0.39,1.07,0.8,2.12,1.32,3.13C32.99,152.84,40.92,165.72,49.57,176.23z"/>
		<path class="st0" d="M64.68,176.03c-0.45,0.55-1.15,0.9-1.92,0.9c-1.41,0-2.55-1.15-2.55-2.55c0-0.79,0.36-1.5,0.94-1.97
			C62.33,173.61,63.52,174.81,64.68,176.03z"/>
		<path class="st0" d="M72.39,195.65c-0.04,0.46-0.05,0.91-0.04,1.35c-3.95-1.39-9.5-5.83-15.42-11.81
			c-13.85-13.99-29.68-36.36-31.46-47.56c0,0,0-0.01,0-0.02s0-0.01,0-0.01c-0.09-0.5-0.14-0.97-0.16-1.42v-0.03
			c2.38,2.68,4.48,5.04,6.97,7.32c0.7,0.64,1.42,1.27,2.2,1.9c0.05-0.11,0.1-0.21,0.14-0.32c0.06-0.11,0.1-0.21,0.14-0.32
			c0.24-0.53,0.44-1.06,0.62-1.59c0.01-0.01,0.01-0.01,0.01-0.02v-0.01c1.49-4.41,1.49-8.86,2.03-13.68c0-0.07,0.01-0.14,0.02-0.21
			c0.12,0.23,0.24,0.47,0.36,0.7c2.22,4.34,4.39,8.68,6.42,13.11c0.31,0.68,0.62,1.37,0.92,2.06c0.37,0.83,0.71,1.67,1.03,2.52
			c0.27,0.68,0.52,1.38,0.77,2.07c0.14,0.38,0.28,0.76,0.41,1.14c0.32,0.88,0.63,1.76,0.95,2.64c-0.22,0.01-0.45,0-0.7-0.03
			c0.59,2.74,1.4,5.38,2.41,7.91c0.64-0.03,1.17-0.16,1.63-0.39c0.28,0.49,0.58,0.97,0.89,1.44c0.07,0.11,0.15,0.22,0.22,0.32
			c-0.47,0.42-1.05,0.73-1.77,0.88c1.14,2.49,2.47,4.87,3.98,7.1c1.41-0.34,2.25-0.97,2.8-1.83c0.37,0.42,0.76,0.83,1.16,1.24
			c-0.41,1.06-1.2,1.91-2.65,2.42c4.31,5.8,9.82,10.58,16.08,14.01c0.07,0.05,0.15,0.09,0.22,0.12
			C73.48,189.39,72.58,192.61,72.39,195.65z"/>
		<path class="st0" d="M23,147.16c12.3,25.48,28.61,40.95,46.69,57.05"/>
		<polyline class="st0" points="50.27,169.51 48.58,167 46.61,164.06 42.92,158.58 38.46,151.95 35.06,145.31 34.76,144.73 
			34.62,144.45 		"/>
		<path class="st0" d="M11.48,99.89c0.85,19.12,4.82,30.17,7.33,44.05"/>
		<path class="st0" d="M24.47,96.19c0.43,14.29,1.78,26.51,6.47,40.24"/>
		<polyline class="st0" points="37.45,94.33 38.04,105.86 39.52,118.26 41,126.92 		"/>
		<line class="st0" x1="35.67" y1="72.12" x2="35.97" y2="88.58"/>
		<polyline class="st0" points="22.95,72.54 22.62,82.13 23.84,88.27 		"/>
		<path class="st0" d="M9.95,74.42c1.49,5.42,0.68,11.65-1.18,18.17"/>
		<polyline class="st0" points="44.84,55.39 38.04,61.45 35.38,67.22 		"/>
	</g>
	<g>
		<path class="st0" d="M105.23,74.26H67.36c-0.15,0.2-0.31,0.41-0.47,0.62c-0.14-0.21-0.28-0.41-0.42-0.62H46.46v68.4
			c0,2.39,0.16,4.74,0.48,7.02c0.14,0.38,0.28,0.76,0.41,1.14c3.44,0.4,4.32-1.97,5.73-5.06c0.04-0.1,0.08-0.2,0.13-0.3
			c-0.03,0.25-0.07,0.51-0.1,0.76v0.01c0.56,6.9,2.68,13.26,5.96,18.78c0.01-0.05,0.03-0.1,0.04-0.15c0.01,0.08,0.02,0.17,0.02,0.25
			l0.01,0.01c0.17,1.83,0.31,3.59-0.22,4.98c-0.41,1.06-1.2,1.91-2.65,2.42c4.31,5.8,9.82,10.58,16.08,14.01
			c0.07,0.05,0.15,0.09,0.22,0.12c3.98,2.17,8.26,3.78,12.72,4.77c3.36,0.75,6.82,1.15,10.34,1.15v-0.77
			c-1.29-0.12-2.32-1.21-2.32-2.54c0-1.32,1.03-2.41,2.32-2.53v-1.86c-0.53,0-1.05-0.01-1.57-0.03c-0.33-0.01-0.66-0.03-0.99-0.05
			c-0.31-0.02-0.62-0.04-0.92-0.07c-0.24-0.02-0.48-0.04-0.71-0.07c-0.6-0.06-1.2-0.13-1.79-0.22c-0.52-0.07-1.03-0.16-1.54-0.25
			c-0.27-0.05-0.53-0.1-0.79-0.16c-0.41-0.08-0.81-0.17-1.21-0.27c-0.35-0.08-0.7-0.17-1.04-0.26c-0.32-0.08-0.64-0.17-0.95-0.26
			c-0.59-0.17-1.17-0.36-1.75-0.55c-1.61-0.55-3.18-1.19-4.69-1.92c-0.42-0.2-0.83-0.41-1.24-0.63c-0.08-0.03-0.15-0.07-0.22-0.11
			c-0.52-0.28-1.03-0.56-1.53-0.86c-0.47-0.27-0.93-0.55-1.38-0.84c0-0.01-0.01-0.01-0.02-0.02c-0.22-0.14-0.44-0.28-0.66-0.44
			c-0.36-0.23-0.71-0.47-1.06-0.72c-0.61-0.44-1.22-0.9-1.81-1.37c-0.35-0.28-0.7-0.57-1.04-0.86c-1.09-0.93-2.13-1.92-3.12-2.95
			c-0.4-0.42-0.79-0.85-1.17-1.29c-0.43-0.48-0.84-0.97-1.24-1.48c-0.4-0.5-0.79-1.01-1.17-1.54c-0.37-0.5-0.72-1.01-1.06-1.53
			c-0.2-0.29-0.38-0.58-0.56-0.87c-0.17-0.28-0.34-0.55-0.51-0.83c-0.66-1.11-1.27-2.26-1.82-3.43c-0.14-0.3-0.28-0.59-0.41-0.89
			c-0.18-0.41-0.36-0.82-0.52-1.23c-0.08-0.19-0.16-0.38-0.23-0.58c-0.51-1.29-0.95-2.61-1.32-3.96c-0.13-0.47-0.25-0.94-0.36-1.42
			c-0.1-0.42-0.2-0.84-0.28-1.26c-0.03-0.16-0.06-0.33-0.1-0.49c-0.05-0.29-0.11-0.59-0.16-0.89c-0.1-0.56-0.18-1.13-0.25-1.7
			c-0.05-0.34-0.09-0.69-0.12-1.04c-0.03-0.26-0.06-0.53-0.08-0.8c-0.03-0.36-0.05-0.72-0.07-1.08c-0.05-0.78-0.07-1.57-0.07-2.36
			v-61.4h51.16v-1.13L105.23,74.26z M61.15,172.41c0.44-0.36,0.99-0.58,1.61-0.58c1.4,0,2.54,1.15,2.54,2.55
			c0,0.63-0.23,1.21-0.62,1.65c-0.45,0.55-1.15,0.9-1.92,0.9c-1.41,0-2.55-1.15-2.55-2.55C60.21,173.59,60.57,172.88,61.15,172.41z
			 M52.96,110.96c-0.13,1.28-1.23,2.29-2.54,2.29c-1.4,0-2.55-1.15-2.55-2.55c0-1.4,1.15-2.55,2.55-2.55c1.31,0,2.41,1.01,2.54,2.29
			c0.01,0.09,0.01,0.17,0.01,0.26C52.97,110.79,52.97,110.87,52.96,110.96z M53.37,80.76c-0.12,0.11-0.26,0.21-0.41,0.29
			c-0.37,0.22-0.81,0.35-1.27,0.35c-1.4,0-2.54-1.15-2.54-2.55c0-1.41,1.14-2.55,2.54-2.55c1.41,0,2.55,1.14,2.55,2.55
			C54.24,79.61,53.91,80.29,53.37,80.76z M95.42,80.57c-1.41,0-2.55-1.15-2.55-2.55c0-1.4,1.14-2.55,2.55-2.55
			c0.07,0,0.14,0,0.21,0.01h0.05c1.28,0.13,2.28,1.23,2.28,2.54s-1,2.41-2.28,2.54h-0.05C95.56,80.57,95.49,80.57,95.42,80.57z"/>
		<path class="st0" d="M67.36,74.26c-0.15,0.2-0.31,0.41-0.47,0.62c-0.14-0.21-0.28-0.41-0.42-0.62H67.36z"/>
		<path class="st0" d="M52.96,110.44c-0.13-1.28-1.23-2.29-2.54-2.29c-1.4,0-2.55,1.15-2.55,2.55c0,1.4,1.15,2.55,2.55,2.55
			c1.31,0,2.41-1.01,2.54-2.29c0.01-0.09,0.01-0.17,0.01-0.26C52.97,110.61,52.97,110.53,52.96,110.44z M59.14,165.12l-0.01-0.01
			c0-0.08-0.01-0.17-0.02-0.25c-0.01,0.05-0.03,0.1-0.04,0.15c-0.38,1.52-0.65,2.84-1.31,3.85c-0.55,0.86-1.39,1.49-2.8,1.83
			c0.42,0.62,0.86,1.23,1.31,1.83c1.45-0.51,2.24-1.36,2.65-2.42C59.45,168.71,59.31,166.95,59.14,165.12z M53.08,145.76
			c-1.41,3.09-2.29,5.46-5.73,5.06c-0.13-0.38-0.27-0.76-0.41-1.14c0.05,0.37,0.1,0.74,0.16,1.11c0.14,0.89,0.31,1.77,0.5,2.64
			c0.25,0.03,0.48,0.04,0.7,0.03c3.62-0.07,4.31-3.44,4.81-7.23v-0.01c0.03-0.25,0.07-0.51,0.1-0.76
			C53.16,145.56,53.12,145.66,53.08,145.76z M51.64,160.95c-0.46,0.23-0.99,0.36-1.63,0.39c0.3,0.76,0.63,1.51,0.97,2.25
			c0.72-0.15,1.3-0.46,1.77-0.88c1.46-1.31,1.84-3.76,2.22-6.32C53.92,158.45,53.19,160.2,51.64,160.95z M62.76,171.83
			c-0.62,0-1.17,0.22-1.61,0.58c-0.58,0.47-0.94,1.18-0.94,1.97c0,1.4,1.14,2.55,2.55,2.55c0.77,0,1.47-0.35,1.92-0.9
			c0.39-0.44,0.62-1.02,0.62-1.65C65.3,172.98,64.16,171.83,62.76,171.83z M140.9,76.28c-1.41,0-2.55,1.14-2.55,2.55
			c0,1.4,1.14,2.54,2.55,2.54c1.4,0,2.55-1.14,2.55-2.54C143.45,77.42,142.3,76.28,140.9,76.28z M141.3,108.15
			c-1.4,0-2.55,1.15-2.55,2.55c0,1.4,1.15,2.55,2.55,2.55c1.4,0,2.55-1.15,2.55-2.55C143.85,109.3,142.7,108.15,141.3,108.15z
			 M143.57,153.35c-3.57,0.6-4.94-1.28-5.63-4.02c-0.39,2.73-1.04,5.39-1.95,7.96c0,0,0,0,0,0.01c1.06,2.1,1.95,3.72,4.07,4
			c0.4,0.06,0.84,0.07,1.34,0.02c0.49-1.21,0.93-2.45,1.3-3.7c0-0.01,0-0.01,0.01-0.02c0.39-1.26,0.72-2.53,1-3.82
			c0.04-0.15,0.07-0.31,0.1-0.47C143.73,153.32,143.65,153.34,143.57,153.35z M137.29,145.46c0.17,1.36,0.35,2.69,0.65,3.87
			c0.1-0.65,0.18-1.29,0.24-1.95C137.89,146.79,137.6,146.14,137.29,145.46z M136.41,151.4c0.02-0.07,0.04-0.15,0.05-0.22
			c0.06-0.3,0.12-0.61,0.17-0.91C136.56,150.65,136.49,151.03,136.41,151.4z"/>
		<path class="st0" d="M145.25,107.81v-0.01c-0.08-5.9-0.18-11.79-0.26-17.68v-0.01c-0.07-5.3-0.13-10.58-0.13-15.85h-39.63
			l0.03,6.5h33.1c0,2.5,0.01,5,0.04,7.5c0.18,19.04,0.88,38.25-0.08,57.22c-0.03,0.64-0.08,1.27-0.14,1.9
			c1.14,2.39,2.31,3.95,5.5,3.37l0.24,0.88c0.11-1.99,0.58-5.4,0.93-7.4c0-0.02,0.01-0.04,0.01-0.06c0.17-3.73,0.29-7.46,0.37-11.21
			v-0.01C145.39,124.59,145.35,116.21,145.25,107.81z M138.35,78.83c0-1.41,1.14-2.55,2.55-2.55c1.4,0,2.55,1.14,2.55,2.55
			c0,1.4-1.15,2.54-2.55,2.54C139.49,81.37,138.35,80.23,138.35,78.83z M141.3,113.25c-1.4,0-2.55-1.15-2.55-2.55
			c0-1.4,1.15-2.55,2.55-2.55c1.4,0,2.55,1.15,2.55,2.55C143.85,112.1,142.7,113.25,141.3,113.25z"/>
		<path class="st0" d="M140.38,163.69c-0.16,0.39-0.34,0.77-0.53,1.15c-0.73,1.49-1.54,2.94-2.41,4.35
			c-0.01,0.02-0.02,0.03-0.02,0.04c-0.35,0.55-0.7,1.09-1.06,1.62c-1.33-0.2-2.24-0.59-2.89-1.15c-0.99-0.86-1.38-2.1-1.77-3.59
			c1.65-2.58,3.02-5.33,4.07-8.21c0.43,2.47,1.07,4.64,2.99,5.45C139.22,163.55,139.75,163.67,140.38,163.69z"/>
		<path class="st0" d="M59.07,165.01c-0.38,1.52-0.65,2.84-1.31,3.85c-0.55,0.86-1.39,1.49-2.8,1.83c-1.51-2.23-2.84-4.61-3.98-7.1
			c0.72-0.15,1.3-0.46,1.77-0.88c1.46-1.31,1.84-3.76,2.22-6.32c-1.05,2.06-1.78,3.81-3.33,4.56c-0.46,0.23-0.99,0.36-1.63,0.39
			c-1.01-2.53-1.82-5.17-2.41-7.91c0.25,0.03,0.48,0.04,0.7,0.03c3.62-0.07,4.31-3.44,4.81-7.23
			C53.67,153.13,55.79,159.49,59.07,165.01z"/>
		<g>
			<path class="st2" d="M138.4,88.26c-0.03-2.5-0.04-5-0.04-7.5h-33.1v1.13H54.1v28.39h83.12v33.01c0,0.79-0.02,1.58-0.07,2.36
				c-0.02,0.36-0.04,0.72-0.07,1.08c-0.02,0.27-0.05,0.54-0.08,0.8c-0.03,0.35-0.07,0.7-0.12,1.04c-0.03,0.29-0.07,0.57-0.12,0.85
				c-0.04,0.29-0.09,0.57-0.13,0.85c-0.05,0.3-0.11,0.61-0.17,0.91c-0.01,0.07-0.03,0.15-0.05,0.22c-0.12,0.66-0.27,1.31-0.43,1.96
				c-0.16,0.64-0.33,1.26-0.52,1.89c-0.01,0.04-0.02,0.08-0.03,0.12c-0.1,0.31-0.2,0.62-0.31,0.94c-0.1,0.3-0.2,0.61-0.31,0.91
				c-0.12,0.34-0.25,0.68-0.38,1.02c-0.1,0.27-0.21,0.54-0.32,0.81c-0.8,1.94-1.74,3.8-2.81,5.58c-0.17,0.29-0.35,0.58-0.53,0.86
				c-0.42,0.67-0.87,1.33-1.33,1.98c-0.17,0.22-0.33,0.45-0.5,0.67c-0.76,1.02-1.58,2.01-2.44,2.96c-0.43,0.49-0.88,0.96-1.33,1.42
				c-0.05,0.05-0.1,0.1-0.15,0.15c-0.92,0.92-1.88,1.79-2.87,2.62c-0.78,0.64-1.58,1.26-2.4,1.85c-0.03,0.02-0.07,0.05-0.11,0.07
				c-0.42,0.3-0.84,0.59-1.27,0.87c-0.12,0.09-0.25,0.17-0.38,0.24c-0.42,0.29-0.85,0.55-1.29,0.8c-0.12,0.08-0.25,0.15-0.38,0.23
				c-0.44,0.25-0.89,0.5-1.34,0.73c-0.14,0.08-0.28,0.16-0.43,0.23c-0.41,0.21-0.82,0.42-1.24,0.61c-0.21,0.1-0.42,0.2-0.64,0.3
				c-0.29,0.13-0.57,0.25-0.86,0.37c-0.16,0.07-0.32,0.14-0.48,0.2c-0.3,0.12-0.6,0.24-0.9,0.36c-0.61,0.23-1.22,0.45-1.84,0.65
				c-0.31,0.1-0.62,0.2-0.93,0.3c-0.32,0.09-0.63,0.18-0.95,0.27c-0.31,0.09-0.63,0.17-0.95,0.25c-0.36,0.09-0.73,0.18-1.1,0.26
				c-0.08,0.03-0.16,0.04-0.25,0.06c-0.36,0.08-0.73,0.15-1.1,0.22c-0.31,0.06-0.62,0.11-0.93,0.17c-1.03,0.17-2.08,0.3-3.13,0.38
				c-0.32,0.03-0.63,0.06-0.95,0.08h-0.05c-0.42,0.03-0.85,0.05-1.27,0.06c-0.43,0.01-0.87,0.02-1.3,0.02h-0.05v1.86
				c0.08-0.01,0.15-0.01,0.23-0.01c1.4,0,2.55,1.14,2.55,2.54c0,1.41-1.15,2.55-2.55,2.55c-0.08,0-0.15,0-0.23-0.01v0.77
				c3.27,0,6.59-0.34,9.91-1.04c3.83-0.8,7.66-2.09,11.44-3.92c0.49-0.24,0.98-0.48,1.47-0.74c0.17-0.09,0.33-0.18,0.5-0.27
				c6.37-3.43,11.83-8.2,16.05-13.86c-1.39-0.33-2.3-0.9-2.87-1.66c-0.86-1.11-0.99-2.61-0.89-4.25c0.02-0.64,0.09-1.3,0.15-1.97
				c0.11,0.43,0.21,0.85,0.31,1.25c1.65-2.58,3.02-5.33,4.07-8.21c-0.09-0.5-0.16-1-0.24-1.51c0.16,0.31,0.31,0.61,0.46,0.9
				c0.91-2.57,1.56-5.23,1.95-7.96c-0.3-1.18-0.48-2.51-0.65-3.87c0.31,0.68,0.6,1.33,0.89,1.92c0.06-0.63,0.11-1.26,0.14-1.9
				C139.28,126.51,138.58,107.3,138.4,88.26z M128.58,177.78c-0.85,0-1.61-0.42-2.07-1.07c-0.3-0.41-0.48-0.93-0.48-1.48
				c0-1.4,1.15-2.55,2.55-2.55c0.56,0,1.07,0.18,1.48,0.48c0.65,0.46,1.07,1.22,1.07,2.07
				C131.13,176.63,129.99,177.78,128.58,177.78z"/>
			<path class="st2" d="M136.63,150.27c-0.05,0.3-0.11,0.61-0.17,0.91c-0.01,0.07-0.03,0.15-0.05,0.22
				C136.49,151.03,136.56,150.65,136.63,150.27z"/>
			<path class="st2" d="M137.22,142.5v0.79c0,0.79-0.02,1.58-0.07,2.36c-0.02,0.36-0.04,0.72-0.07,1.08
				c-0.02,0.27-0.05,0.54-0.08,0.8c-0.03,0.35-0.07,0.7-0.12,1.04c-0.03,0.29-0.07,0.57-0.12,0.85c-0.04,0.29-0.09,0.57-0.13,0.85
				c-0.07,0.38-0.14,0.76-0.22,1.13c-0.12,0.66-0.27,1.31-0.43,1.96c-0.16,0.64-0.33,1.26-0.52,1.89c-0.01,0.04-0.02,0.08-0.03,0.12
				c-0.1,0.31-0.2,0.62-0.31,0.94c-0.1,0.3-0.2,0.61-0.31,0.91c-0.12,0.34-0.25,0.68-0.38,1.02c-0.1,0.27-0.21,0.54-0.32,0.81
				c-0.8,1.94-1.74,3.8-2.81,5.58c-0.17,0.29-0.35,0.58-0.53,0.86c-0.42,0.67-0.87,1.33-1.33,1.98c-0.17,0.22-0.33,0.45-0.5,0.67
				c-0.76,1.02-1.58,2.01-2.44,2.96c-0.43,0.49-0.88,0.96-1.33,1.42c-0.05,0.05-0.1,0.1-0.15,0.15c-0.92,0.92-1.88,1.79-2.87,2.62
				c-0.78,0.64-1.58,1.26-2.4,1.85c-0.03,0.02-0.07,0.05-0.11,0.07c-0.42,0.3-0.84,0.59-1.27,0.87c-0.12,0.09-0.25,0.17-0.38,0.24
				c-0.42,0.29-0.85,0.55-1.29,0.8c-0.12,0.08-0.25,0.15-0.38,0.23c-0.44,0.25-0.89,0.5-1.34,0.73c-0.14,0.08-0.28,0.16-0.43,0.23
				c-0.41,0.21-0.82,0.42-1.24,0.61c-0.21,0.1-0.42,0.2-0.64,0.3c-0.29,0.13-0.57,0.25-0.86,0.37c-0.16,0.07-0.32,0.14-0.48,0.2
				c-0.3,0.12-0.6,0.24-0.9,0.36c-0.61,0.23-1.22,0.45-1.84,0.65c-0.31,0.1-0.62,0.2-0.93,0.3c-0.32,0.09-0.63,0.18-0.95,0.27
				c-0.31,0.09-0.63,0.17-0.95,0.25c-0.36,0.09-0.73,0.18-1.1,0.26c-0.08,0.03-0.16,0.04-0.25,0.06c-0.36,0.08-0.73,0.15-1.1,0.22
				c-0.31,0.06-0.62,0.11-0.93,0.17c-1.03,0.17-2.08,0.3-3.13,0.38c-0.32,0.03-0.63,0.06-0.95,0.08h-0.05
				c-0.42,0.03-0.85,0.05-1.27,0.06c-0.43,0.01-0.87,0.02-1.3,0.02h-0.05c-0.53,0-1.05-0.01-1.57-0.03
				c-0.33-0.01-0.66-0.03-0.99-0.05c-0.31-0.02-0.62-0.04-0.92-0.07c-0.24-0.02-0.48-0.04-0.71-0.07c-0.6-0.06-1.2-0.13-1.79-0.22
				c-0.52-0.07-1.03-0.16-1.54-0.25c-0.27-0.05-0.53-0.1-0.79-0.16c-0.41-0.08-0.81-0.17-1.21-0.27c-0.35-0.08-0.7-0.17-1.04-0.26
				c-0.32-0.08-0.64-0.17-0.95-0.26c-0.59-0.17-1.17-0.36-1.75-0.55c-1.61-0.55-3.18-1.19-4.69-1.92c-0.42-0.2-0.83-0.41-1.24-0.63
				c-0.08-0.03-0.15-0.07-0.22-0.11c-0.52-0.28-1.03-0.56-1.53-0.86c-0.47-0.27-0.93-0.55-1.38-0.84c0-0.01-0.01-0.01-0.02-0.02
				c-0.22-0.14-0.44-0.28-0.66-0.44c-0.36-0.23-0.71-0.47-1.06-0.72c-0.61-0.44-1.22-0.9-1.81-1.37c-0.35-0.28-0.7-0.57-1.04-0.86
				c-1.09-0.93-2.13-1.92-3.12-2.95c-0.4-0.42-0.79-0.85-1.17-1.29c-0.43-0.48-0.84-0.97-1.24-1.48c-0.4-0.5-0.79-1.01-1.17-1.54
				c-0.37-0.5-0.72-1.01-1.06-1.53c-0.2-0.29-0.38-0.58-0.56-0.87c-0.17-0.28-0.34-0.55-0.51-0.83c-0.66-1.11-1.27-2.26-1.82-3.43
				c-0.14-0.3-0.28-0.59-0.41-0.89c-0.18-0.41-0.36-0.82-0.52-1.23c-0.08-0.19-0.16-0.38-0.23-0.58c-0.51-1.29-0.95-2.61-1.32-3.96
				c-0.13-0.47-0.25-0.94-0.36-1.42c-0.1-0.42-0.2-0.84-0.28-1.26c-0.03-0.16-0.06-0.33-0.1-0.49c-0.05-0.29-0.11-0.59-0.16-0.89
				c-0.1-0.56-0.18-1.13-0.25-1.7c-0.05-0.34-0.09-0.69-0.12-1.04c-0.03-0.26-0.06-0.53-0.08-0.8c-0.03-0.36-0.05-0.72-0.07-1.08
				c-0.05-0.78-0.07-1.57-0.07-2.36v-0.79H137.22z"/>
			<path class="st2" d="M136.63,150.27c-0.05,0.3-0.11,0.61-0.17,0.91c-0.01,0.07-0.03,0.15-0.05,0.22
				C136.49,151.03,136.56,150.65,136.63,150.27z"/>
			<path class="st2" d="M136.41,151.4c-0.08,0.38-0.16,0.76-0.25,1.13"/>
			<rect x="54.1" y="110.28" class="st2" width="83.12" height="32.22"/>
			<path class="st2" d="M55.15,152.53c-0.07-0.29-0.13-0.59-0.2-0.88"/>
		</g>
	</g>
	<g>
		<g>
			<path class="st0" d="M54.22,33.15l4.8,0.19l0.38-4.87c-2.82-3.58-2.49-3.17,0,0.2h5.38l-0.19-4.68l-3.65-2.34l5.95,0.78
				c-2.31-4.29-6.53-3.99-10.95-4.29c1.92,5.86,0.17,7.55-5.19,6.82L54.22,33.15z"/>
			<polygon class="st0" points="55.18,33.93 58.26,38.81 63.63,39.2 63.44,35.1 60.37,31.2 63.25,35.3 70.16,38.61 69.97,28.28 
				65.36,24.18 64.98,28.86 59.6,28.28 58.83,33.35 			"/>
			<path class="st0" d="M58.64,39.59c-0.26,1.3-1.67,2.94-0.77,3.9c2.05,2.19,5.28,2.83,8.07,3.9c0.48,0.19,1.47,0.32,1.54-0.19
				c0.43-3.22,0.89-6.69-0.19-9.75c-0.62-1.75-2.94-2.21-4.42-3.31l0.96,5.85L58.64,39.59z"/>
			<polygon class="st0" points="69.59,39.39 77.65,41.92 77.85,32.18 75.73,28.47 74.77,32.57 70.36,30.62 			"/>
			<polygon class="st0" points="59.6,44.26 60.75,48.75 61.91,53.62 62.48,60.06 65.94,54.6 67.09,47.38 63.83,46.99 			"/>
			<path class="st0" d="M78.42,41.54l-0.12,2.43l-0.37,7.83l-0.07,1.26c-0.02,0.02-0.05,0.02-0.07,0.03
				c-0.98,0.39-1.91,0.81-2.76,1.24l-2.69-2.28l-3.26-2.75l-0.57-0.48l-0.64-0.54l-0.59-0.5V37.64l0.08,0.04l2.27,1.15l2.95,1.5
				l0.01,0.01l1.6,0.81l1.39,0.13h0.01l2.07,0.19l0.53,0.05L78.42,41.54z"/>
			<path class="st0" d="M85.61,51.11c-0.31,0.04-0.62,0.09-0.93,0.14c-0.93-0.9-1.87-1.8-2.8-2.7c-1.2-1.52-2.39-3.05-3.58-4.58
				c-0.02-0.03-0.05-0.06-0.07-0.09c-0.01-0.79-0.03-1.57-0.04-2.36c-0.05-3.18-0.1-6.36-0.16-9.54c2.24,3.25,4.49,6.5,6.73,9.75
				C85.05,44.86,85.33,47.98,85.61,51.11z"/>
			<path class="st0" d="M71.06,64.63v0.01c-0.06,0.96-0.19,1.91-0.42,2.89c-0.52,2.17-1.53,4.38-3.28,6.73
				c-0.15,0.2-0.31,0.41-0.47,0.62c-0.14-0.21-0.28-0.41-0.42-0.62c-1.26-1.87-2.53-3.75-3.8-5.62c-0.13-3.19-0.26-6.37-0.38-9.56
				c0.03-0.04,0.06-0.08,0.09-0.12c1.79-2.34,2.92-4.29,3.89-6.49v-0.01l0.01-0.01c0.55-1.28,1.05-2.61,1.59-4.17
				c0.12-0.35,0.24-0.71,0.37-1.09c0.08,0.55,0.17,1.1,0.27,1.63c0.35,1.98,0.78,3.84,1.19,5.62c0,0.02,0.01,0.04,0.01,0.06
				c0.21,0.91,0.41,1.79,0.59,2.66C70.83,59.73,71.2,62.18,71.06,64.63z"/>
			<path class="st0" d="M70.3,57.16c0.53,2.57,0.9,5.02,0.76,7.47c-0.04-0.03-0.09-0.06-0.13-0.09c-0.29-2.4-0.58-4.81-0.88-7.21
				c-0.11-0.94-0.23-1.89-0.34-2.83c0-0.02-0.01-0.04-0.01-0.06c-0.21-1.71-0.41-3.43-0.62-5.14c-0.03-0.18-0.05-0.37-0.07-0.55
				c1.11,1.1,2.22,2.2,3.33,3.3c0.81,0.81,1.61,1.61,2.42,2.41C72.84,55.44,71.31,56.45,70.3,57.16z"/>
			<path class="st0" d="M78.6,52.79c-0.25,0.09-0.5,0.18-0.74,0.27c-0.02,0.02-0.05,0.02-0.07,0.03c0.02-0.47,0.03-0.95,0.05-1.42
				c0.03,0.04,0.06,0.09,0.09,0.13C78.15,52.13,78.38,52.46,78.6,52.79z"/>
			<path class="st0" d="M83.51,62.74c-0.49,3.72-0.97,7.44-1.44,11.16c-1.35-1.04-2.69-2.08-4.04-3.12
				c-1.6-1.51-3.22-3.01-4.82-4.52c1.31-0.61,2.82-1.28,4.36-1.88c1.31-0.5,2.63-0.94,3.86-1.24
				C82.07,62.98,82.77,62.84,83.51,62.74z"/>
			<line class="st0" x1="54.42" y1="27.11" x2="56.53" y2="30.23"/>
			<line class="st0" x1="58.45" y1="22.62" x2="61.33" y2="25.94"/>
			<line class="st0" x1="58.06" y1="33.54" x2="59.79" y2="35.88"/>
			<line class="st0" x1="64.59" y1="29.45" x2="66.71" y2="32.57"/>
			<line class="st0" x1="70.74" y1="32.57" x2="74.2" y2="37.44"/>
			<line class="st0" x1="61.91" y1="39.59" x2="65.36" y2="43.68"/>
			<polyline class="st0" points="70.16,39.2 73.24,45.43 74.01,49.92 			"/>
		</g>
		<g>
			<path class="st0" d="M44.19,11.87c1.41,4.24,2.94,5.63,7.53,5.15c2.75-0.28,4.78-0.05,7.62,0.63c2.02,0.48,4.59,0.89,6.36,1.97
				c1.71,1.06,2.78,1.83,4.46,2.95c2.59,1.73,6.84,3.38,9.83,1.69c1.39-0.79,1.98-3.12,2.97-4.38c-1.39-0.2-3.53,0.11-4.88-0.29
				C69.07,16.9,61,10.5,51.53,9.69C48.24,9.41,47,10.39,44.19,11.87z"/>
			<path class="st0" d="M39.91,17.35c0.26,5.02,3.04,2.25,5.7,5.88C45.25,19.01,43.51,10.65,39.91,17.35z"/>
		</g>
	</g>
	<g>
		<g>
			<path class="st0" d="M137.25,33.56l-4.8,0.19l-0.38-4.87c2.82-3.58,2.49-3.17,0,0.19h-5.38l0.19-4.68l3.65-2.34l-5.95,0.78
				c2.31-4.29,6.53-3.99,10.95-4.29c-1.92,5.86-0.16,7.55,5.19,6.82L137.25,33.56z"/>
			<polygon class="st0" points="136.29,34.33 133.22,39.21 127.84,39.6 128.03,35.5 131.11,31.61 128.23,35.7 121.31,39.01 
				121.5,28.68 126.11,24.59 126.5,29.27 131.87,28.68 132.64,33.75 			"/>
			<path class="st0" d="M132.83,39.99c0.26,1.3,1.67,2.94,0.77,3.9c-2.05,2.19-5.28,2.83-8.07,3.9c-0.48,0.19-1.47,0.32-1.54-0.2
				c-0.43-3.22-0.89-6.69,0.19-9.75c0.62-1.75,2.94-2.21,4.42-3.31l-0.96,5.85L132.83,39.99z"/>
			<polygon class="st0" points="121.89,39.79 113.82,42.33 113.63,32.58 115.74,28.88 116.7,32.97 121.12,31.02 			"/>
			<polygon class="st0" points="131.87,44.67 130.72,49.15 129.57,54.03 128.99,60.46 125.54,55 124.38,47.79 127.65,47.4 			"/>
			<path class="st0" d="M124.19,38.04v10.14l-0.59,0.5l-0.64,0.54l-0.57,0.48l-3.26,2.75c-0.01,0.01-0.03,0.03-0.04,0.04l-2.41,2.04
				c-0.92-0.48-1.94-0.95-3.02-1.39c-0.03,0-0.05-0.01-0.07-0.03l-0.05-0.92l-0.37-7.82l-0.12-2.43l0.23-0.02l0.53-0.05l2.07-0.19
				h0.01l1.38-0.13l1.6-0.81h0.01l0.02-0.01l2.93-1.49l2.29-1.16L124.19,38.04z"/>
			<path class="st0" d="M113.43,32.39c-0.05,3.17-0.1,6.35-0.15,9.53c-0.02,0.79-0.03,1.57-0.04,2.36
				c-0.02,0.03-0.05,0.06-0.07,0.09c-1.2,1.53-2.38,3.06-3.58,4.59c-0.82,0.79-1.65,1.59-2.47,2.38c-0.42-0.08-0.83-0.14-1.23-0.21
				c0.27-3,0.55-6,0.82-9C108.95,38.89,111.19,35.64,113.43,32.39z"/>
			<path class="st0" d="M129.18,59.49c-0.13,3.18-0.26,6.37-0.38,9.55c-1.18,1.74-2.36,3.48-3.54,5.22h-1.45
				c-1.66-2.33-2.6-4.53-3.06-6.69c0.83,0.43,1.32,0.7,1.32,0.7l0.27-3.8c0,0-0.06-0.05-0.17-0.14l0.17-6.16
				c0,0-0.31-0.26-0.89-0.69c-0.07-0.05-0.14-0.1-0.22-0.17c0.16-0.8,0.35-1.62,0.54-2.45c0.41-1.79,0.84-3.66,1.19-5.64
				c0.1-0.53,0.19-1.08,0.27-1.63c0.13,0.37,0.25,0.74,0.37,1.09c0.53,1.55,1.02,2.88,1.58,4.14c0,0.01,0.01,0.01,0.01,0.02v0.02
				c0.97,2.2,2.1,4.17,3.9,6.51C129.12,59.41,129.15,59.45,129.18,59.49z"/>
			<path class="st0" d="M113.66,53.14c-0.03,0-0.05-0.01-0.07-0.03c-0.18-0.06-0.35-0.13-0.53-0.2c0.16-0.24,0.32-0.48,0.48-0.72
				c0.03-0.04,0.06-0.07,0.08-0.11C113.63,52.43,113.65,52.79,113.66,53.14z"/>
			<path class="st0" d="M118.5,66.45c-0.02,0.03-0.05,0.04-0.07,0.06c-1.67,1.56-3.33,3.12-5,4.68c-1.32,1.02-2.65,2.05-3.97,3.07
				h-0.07c-0.49-3.84-0.98-7.67-1.48-11.51c0.7,0.11,1.37,0.23,1.98,0.39c1.32,0.32,2.75,0.81,4.15,1.35
				C115.63,65.12,117.19,65.82,118.5,66.45z"/>
			<path class="st0" d="M122.46,49.15c-0.02,0.18-0.04,0.37-0.07,0.55c-0.21,1.72-0.41,3.44-0.62,5.16
				c-0.11,0.87-0.22,1.75-0.32,2.62c-0.07-0.05-0.14-0.1-0.22-0.17c-0.93-0.67-2.42-1.66-4.31-2.66c0.73-0.72,1.44-1.43,2.17-2.16
				c0.01-0.01,0.03-0.03,0.04-0.04C120.24,51.35,121.35,50.25,122.46,49.15z"/>
			<line class="st0" x1="137.06" y1="27.51" x2="134.95" y2="30.63"/>
			<line class="st0" x1="133.03" y1="23.03" x2="130.15" y2="26.34"/>
			<line class="st0" x1="133.41" y1="33.95" x2="131.68" y2="36.28"/>
			<line class="st0" x1="126.88" y1="29.85" x2="124.77" y2="32.97"/>
			<line class="st0" x1="120.74" y1="32.97" x2="117.28" y2="37.84"/>
			<line class="st0" x1="129.57" y1="39.99" x2="126.11" y2="44.08"/>
			<polyline class="st0" points="121.31,39.6 118.24,45.84 117.47,50.32 			"/>
		</g>
		<g>
			<path class="st0" d="M147.29,12.28c-1.41,4.24-2.94,5.63-7.53,5.15c-2.75-0.28-4.78-0.05-7.62,0.63
				c-2.02,0.48-4.59,0.89-6.36,1.97c-1.72,1.06-2.78,1.83-4.46,2.95c-2.59,1.73-6.84,3.38-9.83,1.69c-1.39-0.79-1.98-3.12-2.97-4.38
				c1.39-0.2,3.53,0.11,4.88-0.29c9.02-2.71,17.1-9.11,26.57-9.91C143.24,9.82,144.48,10.8,147.29,12.28z"/>
			<path class="st0" d="M151.57,17.76c-0.26,5.02-3.04,2.25-5.7,5.88C146.23,19.41,147.96,11.06,151.57,17.76z"/>
		</g>
	</g>
	<path class="st0" d="M73.04,66.1c-0.66-0.49-1.32-0.98-1.98-1.46v-0.01c0.14-2.45-0.23-4.9-0.76-7.47
		c-0.09,0.06-0.17,0.12-0.25,0.17c-0.7,0.52-1.08,0.84-1.08,0.84l0.17,6.16c-0.11,0.09-0.17,0.14-0.17,0.14l0.28,3.8
		c0,0,0.52-0.29,1.39-0.74c0.67-0.35,1.56-0.79,2.57-1.27C73.15,66.21,73.1,66.15,73.04,66.1z M95.68,50.65
		c-0.01,0-0.96-0.07-2.49-0.07c-0.54,0-1.15,0.01-1.82,0.03c1.27,0.38,2.74,0.59,4.31,0.59h0.16c1.51-0.01,2.92-0.22,4.14-0.59
		C97.39,50.53,95.68,50.65,95.68,50.65z"/>
	<path class="st0" d="M122.17,64.33c0.11,0.09,0.17,0.14,0.17,0.14l-0.27,3.8c0,0-0.49-0.27-1.32-0.7c-0.6-0.31-1.37-0.7-2.25-1.12
		c-1.31-0.63-2.87-1.33-4.46-1.96c-1.4-0.54-2.83-1.03-4.15-1.35c-0.61-0.16-1.28-0.28-1.98-0.39c-0.88-0.13-1.8-0.22-2.74-0.28
		c-4.16-0.29-8.47,0-9.33,0.07c-0.11,0.01-0.16,0.01-0.16,0.01s-0.02,0-0.05,0c-0.55-0.04-5.43-0.41-9.96-0.05
		c-0.74,0.06-1.47,0.14-2.16,0.24c-0.74,0.1-1.44,0.24-2.08,0.4c-1.23,0.3-2.55,0.74-3.86,1.24c-1.54,0.6-3.05,1.27-4.36,1.88
		c-0.06-0.05-0.11-0.11-0.17-0.16c-0.66-0.49-1.32-0.98-1.98-1.46v-0.01c0.14-2.45-0.23-4.9-0.76-7.47c1.01-0.71,2.54-1.72,4.46-2.7
		c0.09-0.04,0.18-0.09,0.27-0.13c0.85-0.43,1.78-0.85,2.76-1.24c0.02-0.01,0.05-0.01,0.07-0.03c0.24-0.09,0.49-0.18,0.74-0.27
		c0.88-0.32,1.8-0.61,2.75-0.85c1.12-0.28,2.24-0.51,3.33-0.69c0.31-0.05,0.62-0.1,0.93-0.14c1.98-0.28,3.83-0.42,5.4-0.49
		c0.13,0,0.24-0.01,0.35-0.01h0.01c1.27,0.38,2.74,0.59,4.31,0.59h0.16c1.51-0.01,2.92-0.22,4.14-0.59h0.01
		c0.12,0.01,0.23,0.01,0.35,0.02c1.61,0.06,3.52,0.21,5.55,0.5c0.4,0.07,0.81,0.13,1.23,0.21c0.94,0.16,1.89,0.36,2.85,0.6
		c1.08,0.27,2.11,0.6,3.09,0.97c0.18,0.07,0.35,0.14,0.53,0.2c0.02,0.02,0.04,0.03,0.07,0.03c1.08,0.44,2.1,0.91,3.02,1.39
		c0.08,0.04,0.16,0.08,0.24,0.12c1.89,1,3.38,1.99,4.31,2.66c0.08,0.07,0.15,0.12,0.22,0.17c0.58,0.43,0.89,0.69,0.89,0.69
		L122.17,64.33z"/>
	<line class="st0" x1="95.84" y1="63.58" x2="95.84" y2="62.54"/>
	<line class="st0" x1="95.84" y1="51.2" x2="95.84" y2="51.07"/>
	<path class="st0" d="M97.96,78.02c0,1.31-1,2.41-2.28,2.54h-0.05c-0.07,0.01-0.14,0.01-0.21,0.01c-1.41,0-2.55-1.15-2.55-2.55
		c0-1.4,1.14-2.55,2.55-2.55c0.07,0,0.14,0,0.21,0.01h0.05C96.96,75.61,97.96,76.71,97.96,78.02z"/>
	<circle class="st0" cx="141.3" cy="110.7" r="2.55"/>
	<path class="st0" d="M131.13,175.23c0,1.4-1.14,2.55-2.55,2.55c-0.85,0-1.61-0.42-2.07-1.07c-0.3-0.41-0.48-0.93-0.48-1.48
		c0-1.4,1.15-2.55,2.55-2.55c0.56,0,1.07,0.18,1.48,0.48C130.71,173.62,131.13,174.38,131.13,175.23z"/>
	<path class="st0" d="M98.41,189.26c0,1.41-1.15,2.55-2.55,2.55c-0.08,0-0.15,0-0.23-0.01c-1.29-0.12-2.32-1.21-2.32-2.54
		c0-1.32,1.03-2.41,2.32-2.53c0.08-0.01,0.15-0.01,0.23-0.01C97.26,186.72,98.41,187.86,98.41,189.26z"/>
	<path class="st0" d="M52.97,110.7c0,0.09,0,0.17-0.01,0.26c-0.13,1.28-1.23,2.29-2.54,2.29c-1.4,0-2.55-1.15-2.55-2.55
		c0-1.4,1.15-2.55,2.55-2.55c1.31,0,2.41,1.01,2.54,2.29C52.97,110.53,52.97,110.61,52.97,110.7z"/>
	<path class="st0" d="M65.3,174.38c0,0.63-0.23,1.21-0.62,1.65c-0.45,0.55-1.15,0.9-1.92,0.9c-1.41,0-2.55-1.15-2.55-2.55
		c0-0.79,0.36-1.5,0.94-1.97c0.44-0.36,0.99-0.58,1.61-0.58C64.16,171.83,65.3,172.98,65.3,174.38z"/>
	<path class="st0" d="M54.24,78.85c0,0.76-0.33,1.44-0.87,1.91c-0.12,0.11-0.26,0.21-0.41,0.29c-0.37,0.22-0.81,0.35-1.27,0.35
		c-1.4,0-2.54-1.15-2.54-2.55c0-1.41,1.14-2.55,2.54-2.55C53.1,76.3,54.24,77.44,54.24,78.85z"/>
	<path class="st0" d="M143.45,78.83c0,1.4-1.15,2.54-2.55,2.54c-1.41,0-2.55-1.14-2.55-2.54c0-1.41,1.14-2.55,2.55-2.55
		C142.3,76.28,143.45,77.42,143.45,78.83z"/>
	<g>
		<g>
			<path class="st0" d="M46.51,153.16c-0.03,0.03-0.05,0.06-0.08,0.09c-0.79,0.83-2.56,0.71-3.5,0.03
				c-1.96-1.43-2.12-5.83-1.32-7.91c0.32-0.82,1.27-1.24,1.9-1.85c0.21-0.1,0.46-0.3,0.71-0.49c0.47-0.38,0.93-0.74,1.1-0.34
				c0.17,0.39,0.55,2.62,0.85,4.92c0.19,1.45,0.36,2.92,0.42,3.99v0.01C46.64,152.44,46.62,153.02,46.51,153.16z"/>
			<path class="st0" d="M53.21,145.46c-0.03,0.25-0.07,0.51-0.1,0.76v0.01c-0.5,3.79-1.19,7.16-4.81,7.23
				c-0.22,0.01-0.45,0-0.7-0.03c-0.36-0.03-0.75-0.09-1.17-0.18c-0.09-0.02-0.17-0.04-0.26-0.06l0.42-1.58v-0.01l0.23-0.85
				c0.09,0.02,0.19,0.03,0.28,0.04c0.09,0.02,0.17,0.03,0.25,0.03c3.44,0.4,4.32-1.97,5.73-5.06
				C53.12,145.66,53.16,145.56,53.21,145.46z"/>
		</g>
		<g>
			<path class="st0" d="M45.29,154.69c-0.64,0.57-1.58,0.95-1.91,1.7c-0.82,1.89-0.69,5.89,1.26,7.18c0.96,0.63,2.81,0.71,3.57-0.13
				c0.49-0.54-0.77-8.77-1.11-9.52C46.85,153.37,45.9,154.44,45.29,154.69z"/>
			<path class="st0" d="M54.97,156.39c-0.38,2.56-0.76,5.01-2.22,6.32c-0.47,0.42-1.05,0.73-1.77,0.88
				c-0.77,0.17-1.7,0.16-2.84-0.07c-0.09-0.01-0.18-0.03-0.27-0.05l0.43-1.42v-0.01l0.25-0.79c0.54,0.09,1.03,0.12,1.46,0.09
				c0.64-0.03,1.17-0.16,1.63-0.39C53.19,160.2,53.92,158.45,54.97,156.39z"/>
		</g>
		<g>
			<path class="st0" d="M49.4,166.05c-0.48,0.67-1.3,1.27-1.44,2.01c-0.35,1.87,0.72,5.32,2.9,5.9c1.07,0.29,2.87-0.16,3.4-1.1
				c0.34-0.61-2.79-7.43-3.3-7.98C50.59,164.48,49.93,165.67,49.4,166.05z"/>
			<path class="st0" d="M58.92,170.1c-0.41,1.06-1.2,1.91-2.65,2.42c-0.58,0.2-1.26,0.35-2.07,0.43c-0.08,0.01-0.17,0.02-0.26,0.03
				l0.08-1.35v-0.01l0.05-0.76c0.32-0.05,0.62-0.1,0.89-0.17c1.41-0.34,2.25-0.97,2.8-1.83c0.66-1.01,0.93-2.33,1.31-3.85
				c0.01-0.05,0.03-0.1,0.04-0.15c0.01,0.08,0.02,0.17,0.02,0.25l0.01,0.01C59.31,166.95,59.45,168.71,58.92,170.1z"/>
		</g>
	</g>
	<g>
		<g>
			<path class="st0" d="M147.57,153.28c-0.93,0.68-2.7,0.8-3.49-0.03c-0.09,0.02-0.18,0.04-0.27,0.06
				c-0.08,0.01-0.16,0.03-0.24,0.04c-3.57,0.6-4.94-1.28-5.63-4.02c0.1-0.65,0.18-1.29,0.24-1.95c1.14,2.39,2.31,3.95,5.5,3.37
				l0.24,0.88c0.11-1.99,0.58-5.4,0.93-7.4c0-0.02,0.01-0.04,0.01-0.06c0.14-0.76,0.25-1.31,0.33-1.48
				c0.26-0.61,1.21,0.55,1.81,0.83c0.12,0.12,0.26,0.23,0.4,0.34c0.57,0.45,1.23,0.85,1.49,1.51
				C149.7,147.45,149.54,151.85,147.57,153.28z"/>
			<path class="st0" d="M138.18,147.38c-0.06,0.66-0.14,1.3-0.24,1.95c-0.3-1.18-0.48-2.51-0.65-3.87
				C137.6,146.14,137.89,146.79,138.18,147.38z"/>
		</g>
		<g>
			<path class="st0" d="M147.22,161.65c0,0,0,0.01-0.01,0.01l-1.3,1.88c0,0.01,0,0.01-0.01,0.01c-0.01,0.01-0.03,0.02-0.04,0.03
				c-0.92,0.61-2.71,0.71-3.5-0.06c-0.75,0.15-1.4,0.2-1.98,0.17c-0.63-0.02-1.16-0.14-1.62-0.34c-1.92-0.81-2.56-2.98-2.99-5.45
				c-0.09-0.5-0.16-1-0.24-1.51c0.16,0.31,0.31,0.61,0.46,0.9c0,0,0,0,0,0.01c1.06,2.1,1.95,3.72,4.07,4
				c0.4,0.06,0.84,0.07,1.34,0.02c0.49-1.21,0.93-2.45,1.3-3.7c0-0.01,0-0.01,0.01-0.02c0.39-1.26,0.72-2.53,1-3.82
				c0.4,0.07,1.05,0.72,1.51,0.91c0.63,0.57,1.58,0.96,1.91,1.71C147.69,157.68,147.81,159.93,147.22,161.65z"/>
			<path class="st0" d="M143.71,153.78c-0.28,1.29-0.61,2.56-1,3.82c0.26-1.79,0.56-3.37,0.7-3.67
				C143.47,153.79,143.58,153.75,143.71,153.78z"/>
			<path class="st0" d="M147.21,161.66c-0.27,0.79-0.7,1.47-1.3,1.88L147.21,161.66z"/>
		</g>
		<g>
			<path class="st0" d="M139.65,173.97c-1.03,0.27-2.76-0.13-3.34-1.01c-0.48-0.06-0.92-0.13-1.31-0.22
				c-1.39-0.33-2.3-0.9-2.87-1.66c-0.86-1.11-0.99-2.61-0.89-4.25c0.02-0.64,0.09-1.3,0.15-1.97c0.11,0.43,0.21,0.85,0.31,1.25
				c0.39,1.49,0.78,2.73,1.77,3.59c0.65,0.56,1.56,0.95,2.89,1.15c0.36-0.53,0.71-1.07,1.06-1.62c0-0.01,0.01-0.02,0.02-0.04
				c0.87-1.41,1.68-2.86,2.41-4.35c0.38,0.16,0.86,0.93,1.26,1.22c0.48,0.67,1.3,1.26,1.43,2.01c0.02,0.1,0.03,0.2,0.04,0.3
				C142.78,170.28,141.72,173.42,139.65,173.97z"/>
		</g>
	</g>
</g>
</svg>
